<svg width="1865" height="962" viewBox="0 0 1865 962" fill="none" xmlns="http://www.w3.org/2000/svg">
<path d="M123.997 924L126.827 929.173L132 931.997L126.827 934.827L123.997 940L121.173 934.827L116 931.997L121.173 929.173L123.997 924Z" fill="white"/>
<path d="M234.999 13L236.414 15.5864L239 16.9985L236.414 18.4136L234.999 21L233.586 18.4136L231 16.9985L233.586 15.5864L234.999 13Z" fill="white"/>
<path d="M572.994 403L578.654 413.346L589 418.994L578.654 424.654L572.994 435L567.346 424.654L557 418.994L567.346 413.346L572.994 403Z" fill="white"/>
<circle cx="67" cy="581" r="8" fill="white"/>
<circle cx="1615" cy="90" r="8" fill="white"/>
<circle cx="1553" cy="106" r="2" fill="white"/>
<circle cx="1339" cy="223" r="2" fill="white"/>
<circle cx="1629" cy="133" r="2" fill="white"/>
<circle cx="1769" cy="381" r="2" fill="white"/>
<circle cx="1859" cy="336" r="2" fill="white"/>
<circle cx="1713" cy="250" r="2" fill="white"/>
<circle cx="1512" cy="277" r="2" fill="white"/>
<circle cx="1709" cy="414" r="2" fill="white"/>
<circle cx="1666" cy="52" r="2" fill="white"/>
<circle cx="1528" cy="28" r="4" fill="white"/>
<circle cx="1737" cy="229" r="4" fill="white"/>
<circle cx="1808" cy="151" r="4" fill="white"/>
<circle cx="1843" cy="445" r="4" fill="white"/>
<circle cx="1333" cy="453" r="4" fill="white"/>
<circle cx="1379" cy="159" r="4" fill="white"/>
<circle cx="1251" cy="135" r="4" fill="white"/>
<circle cx="1857" cy="381" r="8" fill="white"/>
<circle cx="107" cy="918" r="2" fill="white"/>
<circle cx="249" cy="781" r="2" fill="white"/>
<circle cx="127" cy="678" r="2" fill="white"/>
<circle cx="169" cy="591" r="2" fill="white"/>
<circle cx="2" cy="517" r="2" fill="white"/>
<circle cx="117" cy="597" r="6" fill="white"/>
<circle cx="113" cy="961" r="1" fill="white"/>
<circle cx="56" cy="621" r="4" fill="white"/>
<circle cx="353" cy="353" r="4" fill="white"/>
<circle cx="294" cy="37" r="2" fill="white"/>
<circle cx="393" cy="105" r="2" fill="white"/>
<circle cx="562" cy="92" r="2" fill="white"/>
<circle cx="708" cy="45" r="2" fill="white"/>
<circle cx="283" cy="2" r="2" fill="white"/>
<circle cx="255" cy="22" r="1" fill="white"/>
</svg>
