<svg width="501" height="163" viewBox="0 0 501 163" fill="none" xmlns="http://www.w3.org/2000/svg">
<path d="M102.412 162.862C106.831 162.855 111.067 161.096 114.192 157.972C117.317 154.847 119.075 150.611 119.083 146.192V118.165C119.083 83.108 118.515 45.242 113.298 14.7332C112.656 10.8666 110.662 7.35332 107.672 4.81917C104.682 2.28502 100.889 0.894444 96.9692 0.895C94.1352 0.891772 91.3469 1.6099 88.8671 2.98177C86.3872 4.35364 84.2974 6.33409 82.7942 8.73666C73.8261 25.0075 66.5299 42.1453 61.0174 59.8874C55.6929 42.5808 48.7829 25.8023 40.3754 9.7653C38.93 7.18538 36.8231 5.03733 34.2716 3.54228C31.7201 2.04724 28.8163 1.25921 25.8591 1.25938C22.0388 1.18892 18.3164 2.47028 15.349 4.87731C12.3815 7.28434 10.3598 10.6623 9.64066 14.415C1.36078 53.0882 0.226025 103.33 0 146.201C0.00731832 150.62 1.76603 154.856 4.89077 157.981C8.0155 161.106 12.2514 162.864 16.6705 162.872C21.0722 162.841 25.2833 161.072 28.3854 157.949C31.4876 154.826 33.2291 150.603 33.2302 146.201V145.975C33.2302 128.055 33.7976 108.211 34.817 88.9293C38.1059 99.8153 41.7362 111.725 44.2317 119.664C45.2681 123.049 47.3544 126.016 50.1888 128.136C53.0231 130.256 56.4585 131.42 59.998 131.459C63.4515 131.457 66.82 130.388 69.6425 128.398C72.4649 126.408 74.6031 123.594 75.7644 120.342C78.2599 113.197 82.1161 101.628 85.5157 91.3094C85.8571 109.682 85.8571 128.507 85.8571 145.975V146.201C85.8606 150.601 87.6026 154.82 90.7035 157.941C93.8044 161.062 98.0129 162.831 102.412 162.862V162.862ZM10.7754 44.9144H10.5494C10.1566 44.8643 9.79382 44.6781 9.52414 44.3882C9.25445 44.0983 9.09492 43.723 9.07329 43.3277C10.8861 14.7286 14.2903 9.75606 21.3201 5.56307C21.451 5.46574 21.6001 5.39562 21.7586 5.35681C21.917 5.31799 22.0816 5.31127 22.2427 5.33706C22.4615 5.3351 22.6784 5.37868 22.8795 5.46506C23.0806 5.55144 23.2615 5.67875 23.4107 5.83884C23.56 5.99892 23.6743 6.1883 23.7464 6.39495C23.8185 6.6016 23.8467 6.82097 23.8295 7.03915C23.8293 7.31895 23.756 7.59387 23.6168 7.83661C23.4777 8.07935 23.2775 8.28148 23.0361 8.42299C16.343 12.2792 14.4148 16.0202 12.376 43.3553C12.3767 43.5636 12.3355 43.7699 12.2547 43.9618C12.174 44.1538 12.0553 44.3275 11.9059 44.4726C11.7565 44.6177 11.5794 44.7312 11.3852 44.8063C11.1909 44.8814 10.9835 44.9166 10.7754 44.9098V44.9144ZM85.6265 16.9012L84.833 16.6844C84.5557 16.5504 84.322 16.3407 84.1587 16.0796C83.9955 15.8184 83.9094 15.5163 83.9105 15.2083L84.1365 14.415C85.0821 12.0727 86.6093 10.0103 88.5739 8.42263C90.5384 6.83499 92.8754 5.7746 95.364 5.34167C95.588 5.32282 95.8135 5.34928 96.0271 5.41948C96.2407 5.48968 96.438 5.60217 96.6072 5.75026C96.7763 5.89834 96.914 6.079 97.0118 6.28142C97.1097 6.48384 97.1658 6.7039 97.1768 6.92847C97.1812 7.1532 97.1401 7.37649 97.0562 7.58498C96.9722 7.79348 96.8469 7.98286 96.688 8.1418C96.5291 8.30074 96.3397 8.42596 96.1312 8.50995C95.9227 8.59393 95.6994 8.63494 95.4747 8.63055C93.6158 9.12247 91.8937 10.0322 90.4397 11.2904C88.9856 12.5486 87.838 14.1221 87.0841 15.891C86.9597 16.1775 86.7578 16.4234 86.501 16.6011C86.2443 16.7788 85.9429 16.8811 85.6311 16.8966L85.6265 16.9012ZM71.3269 50.6988H71.1009C70.6989 50.6232 70.3343 50.4139 70.0663 50.1049C69.7984 49.7959 69.6428 49.4054 69.6248 48.9967C70.0603 47.016 70.6732 45.0785 71.4561 43.2077L74.8603 34.0191C76.4895 29.8051 78.3371 25.6788 80.3956 21.657C81.3181 20.1809 81.8717 18.9354 83.1171 18.9354C83.3419 18.931 83.5651 18.9721 83.7736 19.0561C83.9821 19.1401 84.1715 19.2652 84.3305 19.4242C84.4894 19.5831 84.6146 19.7725 84.6986 19.981C84.7826 20.1895 84.8236 20.4128 84.8192 20.6376C84.7737 21.072 84.5721 21.4752 84.2518 21.7723C84.2518 21.8876 83.7906 22.4549 83.3293 23.2483C79.3266 31.7242 75.8422 40.4353 72.8953 49.3334C72.8404 49.7081 72.6538 50.051 72.3688 50.3004C72.0839 50.5498 71.7194 50.6894 71.3408 50.6942L71.3269 50.6988ZM9.4054 60.2241C8.99346 60.1971 8.6054 60.0212 8.31348 59.7293C8.02157 59.4374 7.84569 59.0493 7.81861 58.6374L8.38598 50.5835C8.4518 50.1865 8.64018 49.82 8.92474 49.5355C9.2093 49.2509 9.57577 49.0625 9.97277 48.9967C10.451 49.005 10.9073 49.1987 11.2454 49.5369C11.5836 49.875 11.7773 50.3313 11.7856 50.8095L11.1029 58.6512C11.0825 59.0815 10.8944 59.4867 10.5788 59.7798C10.2631 60.073 9.84524 60.2309 9.41462 60.2195L9.4054 60.2241ZM55.5652 126.685H55.1039C52.794 126.208 50.6901 125.023 49.0846 123.295C47.4792 121.568 46.452 119.383 46.146 117.044C46.1616 116.608 46.3496 116.196 46.6687 115.898C46.9879 115.601 47.412 115.442 47.848 115.457C48.0578 115.452 48.2664 115.49 48.4612 115.568C48.656 115.646 48.833 115.762 48.9813 115.911C49.1297 116.059 49.2464 116.236 49.3243 116.431C49.4023 116.626 49.4399 116.834 49.4348 117.044C49.8581 118.571 50.6633 119.965 51.7746 121.095C52.8859 122.225 54.2666 123.053 55.7866 123.502C56.1709 123.552 56.5236 123.741 56.7784 124.034C57.0332 124.326 57.1726 124.701 57.1704 125.089C57.1762 125.3 57.1388 125.509 57.0605 125.705C56.9823 125.901 56.8649 126.079 56.7154 126.228C56.566 126.377 56.3877 126.494 56.1915 126.572C55.9953 126.65 55.7853 126.686 55.5744 126.68L55.5652 126.685ZM210.826 162.862C212.279 162.841 213.725 162.651 215.134 162.295C218.501 161.346 221.488 159.374 223.683 156.65C225.878 153.926 227.17 150.587 227.381 147.096C228.303 133.719 228.765 119.535 228.765 105.475C228.765 89.9395 228.197 74.6251 227.381 60.6762C227.177 56.4727 225.392 52.5015 222.385 49.5575C219.378 46.6135 215.369 44.9139 211.162 44.7991H210.821C208.625 44.8064 206.451 45.2462 204.425 46.0935C202.399 46.9409 200.56 48.179 199.012 49.7374C197.464 51.2957 196.239 53.1437 195.405 55.1757C194.572 57.2077 194.147 59.384 194.155 61.5803V62.715C194.949 76.3226 195.401 91.7477 195.401 107.173V112.39C193.814 118.741 190.184 129.628 181.678 129.628C175.552 129.628 171.359 124.411 171.244 116.357V61.8109C171.236 57.3919 169.478 53.1559 166.353 50.0312C163.228 46.9065 158.992 45.1478 154.573 45.1405H154.347C149.982 45.2192 145.823 47.0115 142.767 50.1305C139.712 53.2495 138.006 57.4449 138.018 61.8109V116.361C137.577 128.258 141.398 139.921 148.793 149.25C151.996 153.523 156.16 156.982 160.949 159.346C165.737 161.71 171.015 162.913 176.355 162.858C183.912 163.038 191.267 160.408 196.997 155.477C198.529 157.74 200.591 159.596 203.002 160.882C205.413 162.169 208.102 162.849 210.835 162.862H210.826ZM145.398 91.7523C144.962 91.7672 144.538 91.6085 144.219 91.311C143.9 91.0135 143.712 90.6015 143.696 90.1655C143.581 84.6302 143.47 79.9575 143.47 76.1012C143.344 71.508 143.653 66.9132 144.393 62.3783C144.779 59.9919 145.787 57.7494 147.316 55.877C148.845 54.0046 150.841 52.5685 153.102 51.7136L153.784 51.5983C154.009 51.5939 154.232 51.6349 154.441 51.7189C154.649 51.8029 154.839 51.9281 154.998 52.0871C155.157 52.246 155.282 52.4354 155.366 52.6439C155.45 52.8524 155.491 53.0757 155.486 53.3004C155.489 53.6213 155.392 53.9351 155.209 54.1992C155.027 54.4632 154.768 54.6648 154.467 54.7765C152.644 55.334 151.026 56.417 149.816 57.8898C148.606 59.3627 147.857 61.1599 147.663 63.0564C146.897 67.6643 146.588 72.3366 146.741 77.0053L146.967 90.2762C146.935 90.6729 146.757 91.0435 146.467 91.3163C146.177 91.589 145.796 91.7444 145.398 91.7523ZM202.67 91.7523C202.446 91.7566 202.222 91.7156 202.014 91.6316C201.805 91.5476 201.616 91.4224 201.457 91.2635C201.298 91.1046 201.173 90.9152 201.089 90.7067C201.005 90.4982 200.964 90.2749 200.968 90.0502L200.046 59.9935C200.031 59.5575 200.189 59.1333 200.487 58.8142C200.784 58.4951 201.196 58.307 201.632 58.2914C202.068 58.2765 202.493 58.4352 202.812 58.7327C203.131 59.0302 203.319 59.4422 203.335 59.8782L204.354 90.0455C204.345 90.4914 204.165 90.9167 203.852 91.2342C203.539 91.5516 203.116 91.737 202.67 91.7523V91.7523ZM145.057 107.062C144.621 107.046 144.209 106.858 143.912 106.539C143.614 106.22 143.455 105.796 143.47 105.36L143.586 97.5182C143.608 97.1231 143.768 96.7483 144.037 96.4586C144.307 96.1689 144.669 95.9824 145.062 95.9314H145.288C145.736 95.942 146.163 96.1247 146.48 96.4416C146.797 96.7586 146.979 97.1854 146.99 97.6335L146.764 105.475C146.756 105.691 146.706 105.904 146.616 106.101C146.526 106.298 146.398 106.475 146.239 106.622C146.081 106.77 145.895 106.884 145.692 106.96C145.489 107.035 145.273 107.07 145.057 107.062V107.062ZM188.039 136.777C187.719 136.765 187.407 136.675 187.13 136.514C186.854 136.353 186.621 136.127 186.452 135.855L186.337 135.172C186.335 134.849 186.419 134.532 186.582 134.253C186.744 133.974 186.978 133.743 187.259 133.585C190.367 131.849 193.049 129.441 195.109 126.537C197.17 123.633 198.557 120.307 199.169 116.799C199.22 116.415 199.409 116.062 199.701 115.808C199.993 115.553 200.368 115.413 200.756 115.416C201.192 115.431 201.604 115.619 201.902 115.938C202.199 116.258 202.358 116.682 202.343 117.118V117.459C201.681 121.478 200.111 125.293 197.753 128.614C195.395 131.935 192.311 134.675 188.735 136.625L188.039 136.777ZM268.107 162.862C272.306 162.541 276.229 160.645 279.09 157.553C281.95 154.462 283.537 150.404 283.532 146.192L283.416 144.808C282.849 137.322 282.397 129.609 281.94 121.671C283.416 119.742 284.888 117.814 286.475 116.001C293.763 130.568 302.788 144.198 313.353 156.594C314.916 158.475 316.875 159.988 319.09 161.025C321.305 162.061 323.722 162.596 326.167 162.59C330.113 162.567 333.926 161.161 336.943 158.619C338.757 157.036 340.212 155.084 341.21 152.893C342.208 150.702 342.725 148.323 342.727 145.915C342.727 141.857 341.233 137.94 338.53 134.914C327.463 121.723 318.336 107.02 311.425 91.2495C318.467 85.5632 325.812 80.2631 333.428 75.3724C335.84 73.8715 337.833 71.7846 339.221 69.3061C340.609 66.8276 341.347 64.0381 341.366 61.1974C341.37 59.6601 341.14 58.1312 340.684 56.6631C339.68 53.2019 337.577 50.1613 334.693 48.0003C331.809 45.8393 328.3 44.6752 324.696 44.6838H324.47C321.288 44.7313 318.183 45.6745 315.512 47.4053C303.276 55.2023 291.705 63.9964 280.916 73.698C281.032 54.8734 281.839 36.2702 283.412 19.0323L283.527 17.2195C283.498 12.8472 281.74 8.66405 278.638 5.58313C275.535 2.50221 271.34 0.773748 266.967 0.775064H266.4C262.285 0.843302 258.346 2.45492 255.364 5.2905C252.381 8.12609 250.573 11.9787 250.297 16.0848C248.484 36.0441 247.691 57.4796 247.691 78.689C247.691 102.505 248.71 126.094 250.297 147.304C250.569 151.512 252.431 155.459 255.507 158.344C258.582 161.229 262.64 162.836 266.857 162.839L268.107 162.862ZM256.427 45.8185C255.991 45.8029 255.579 45.6149 255.282 45.2958C254.984 44.9766 254.826 44.5525 254.84 44.1164V44.0011C254.609 34.893 255.216 25.7828 256.653 16.7859C257.029 14.5626 257.87 12.4437 259.121 10.5678C260.373 8.69188 262.006 7.1012 263.914 5.89983C264.205 5.76997 264.518 5.6934 264.836 5.67379H264.952C265.161 5.66873 265.37 5.70634 265.565 5.78429C265.76 5.86224 265.937 5.97891 266.085 6.12728C266.233 6.27564 266.35 6.45262 266.428 6.64742C266.506 6.84222 266.543 7.05082 266.538 7.26058C266.535 7.54074 266.472 7.81693 266.354 8.07124C266.236 8.32554 266.067 8.55226 265.856 8.73666C264.234 9.61004 262.843 10.8579 261.8 12.3766C260.757 13.8953 260.092 15.641 259.859 17.4686C258.627 26.2978 258.058 35.2069 258.157 44.121C258.161 44.3478 258.119 44.5729 258.033 44.7828C257.947 44.9926 257.819 45.1828 257.657 45.3416C257.495 45.5004 257.303 45.6246 257.091 45.7066C256.88 45.7886 256.654 45.8267 256.427 45.8185ZM329.692 50.6942C329.371 50.6891 329.056 50.6118 328.769 50.4682C327.867 49.8539 326.798 49.5319 325.706 49.5456C324.538 49.5526 323.382 49.7844 322.302 50.2283H321.735C321.401 50.224 321.076 50.1262 320.795 49.946C320.515 49.7657 320.29 49.5103 320.148 49.2089L320.032 48.6415C320.026 48.2743 320.147 47.9162 320.374 47.6273C320.601 47.3383 320.92 47.1362 321.278 47.0547C322.738 46.5527 324.268 46.2849 325.812 46.2613C327.495 46.2938 329.139 46.7713 330.577 47.6452C330.836 47.7658 331.051 47.9635 331.193 48.2113C331.335 48.459 331.397 48.7447 331.371 49.029C331.351 49.3476 331.274 49.66 331.145 49.9516C330.971 50.173 330.752 50.3541 330.502 50.4824C330.252 50.6106 329.977 50.6829 329.696 50.6942H329.692ZM256.201 61.1282C255.783 61.1188 255.385 60.9486 255.09 60.6531C254.794 60.3575 254.624 59.9593 254.614 59.5415V59.4261C254.614 56.4786 254.614 54.8918 254.73 51.5845C254.727 51.3613 254.77 51.1399 254.854 50.9333C254.939 50.7267 255.064 50.5392 255.222 50.3818C255.38 50.2245 255.568 50.1004 255.775 50.017C255.982 49.9336 256.204 49.8925 256.427 49.8962C256.875 49.9068 257.302 50.0895 257.619 50.4064C257.936 50.7234 258.119 51.1502 258.129 51.5983L257.903 59.44C257.889 59.8857 257.705 60.309 257.388 60.623C257.072 60.9371 256.647 61.1178 256.201 61.1282V61.1282ZM297.144 67.3647C296.696 67.3541 296.269 67.1714 295.952 66.8545C295.635 66.5375 295.452 66.1107 295.442 65.6626C295.45 65.4159 295.516 65.1745 295.634 64.9581C295.753 64.7417 295.921 64.5564 296.125 64.4171L314.045 51.28C314.335 51.0507 314.695 50.93 315.065 50.9387C315.274 50.9336 315.483 50.9712 315.678 51.0492C315.872 51.1271 316.049 51.2438 316.198 51.3922C316.346 51.5405 316.463 51.7175 316.541 51.9123C316.619 52.1071 316.656 52.3157 316.651 52.5255C316.649 52.7927 316.587 53.056 316.469 53.2956C316.35 53.5353 316.179 53.7451 315.969 53.9093L298.048 67.1802C297.773 67.3334 297.457 67.3979 297.144 67.3647V67.3647ZM307.693 140.97C307.324 140.979 306.963 140.858 306.674 140.629C306.127 140.154 305.632 139.622 305.198 139.042L303.27 136.436C301.794 134.392 300.096 131.671 298.279 128.839C296.461 126.007 294.648 123.054 293.288 120.448C292.058 118.455 291.068 116.323 290.34 114.096L290.225 113.529C290.26 113.1 290.454 112.7 290.769 112.407C291.084 112.113 291.497 111.948 291.927 111.942C292.284 111.973 292.624 112.108 292.906 112.329C293.187 112.55 293.399 112.848 293.514 113.188C294.209 115.172 295.122 117.073 296.235 118.857C297.619 121.352 299.298 124.3 301.111 127.021C302.813 129.858 304.626 132.464 305.987 134.508C306.78 135.527 307.37 136.436 307.915 137.003L308.708 138.023C308.921 138.152 309.096 138.335 309.216 138.554C309.336 138.773 309.396 139.019 309.391 139.268C309.381 139.634 309.262 139.989 309.049 140.288C308.888 140.495 308.683 140.664 308.448 140.782C308.214 140.9 307.956 140.964 307.693 140.97V140.97ZM378.573 33.2303C382.992 33.223 387.228 31.4643 390.353 28.3396C393.477 25.2149 395.236 20.9789 395.243 16.5599C395.237 14.3776 394.801 12.2179 393.96 10.2043C393.119 8.19068 391.889 6.36266 390.34 4.8247C388.792 3.28674 386.956 2.06902 384.937 1.24119C382.918 0.413352 380.755 -0.00836921 378.573 0.00012583C376.396 -0.0071868 374.239 0.416147 372.227 1.24576C370.215 2.07538 368.386 3.29488 366.847 4.83406C365.308 6.37323 364.088 8.20165 363.259 10.2141C362.429 12.2265 362.006 14.3832 362.013 16.5599C362.005 18.7421 362.426 20.9047 363.254 22.9239C364.082 24.943 365.3 26.7792 366.838 28.3275C368.376 29.8757 370.204 31.1056 372.217 31.9469C374.231 32.7882 376.391 33.2243 378.573 33.2303V33.2303ZM367.004 13.045L366.321 12.9296C366.044 12.7956 365.81 12.586 365.647 12.3248C365.484 12.0636 365.398 11.7615 365.399 11.4535L365.514 10.7709C366.041 9.25361 366.891 7.86903 368.006 6.71327C369.121 5.5575 370.474 4.6582 371.972 4.07777L372.433 3.96245C372.666 3.94728 372.899 3.98008 373.119 4.0588C373.338 4.13753 373.539 4.2605 373.709 4.42009C373.879 4.57968 374.014 4.77251 374.107 4.98658C374.199 5.20065 374.247 5.43141 374.246 5.66456C374.262 6.03417 374.145 6.3973 373.917 6.68831C373.688 6.97933 373.363 7.17903 373.001 7.25136C371.94 7.64042 370.986 8.27494 370.217 9.10308C369.448 9.93122 368.886 10.9295 368.577 12.0163C368.437 12.3159 368.215 12.5704 367.938 12.7512C367.661 12.9321 367.339 13.0322 367.009 13.0403L367.004 13.045ZM380.16 162.862C384.394 162.663 388.39 160.846 391.324 157.786C394.257 154.726 395.905 150.657 395.926 146.418L395.811 145.172C395.128 132.132 394.676 117.611 394.676 102.869C394.676 89.2614 395.017 75.5385 395.811 62.9457L395.926 61.5618C395.92 59.3796 395.484 57.2199 394.643 55.2063C393.801 53.1927 392.571 51.3646 391.023 49.8266C389.475 48.2887 387.639 47.071 385.62 46.2431C383.6 45.4153 381.438 44.9936 379.256 45.0021H378.462C374.339 45.1556 370.422 46.8473 367.484 49.744C364.545 52.6406 362.798 56.5324 362.585 60.6531C361.792 74.2607 361.34 88.6663 361.34 102.957C361.34 118.266 361.801 133.35 362.585 147.073C362.785 151.326 364.615 155.339 367.695 158.279C370.775 161.219 374.869 162.86 379.126 162.862H380.16ZM368.48 91.3002C368.044 91.2846 367.632 91.0966 367.335 90.7774C367.037 90.4583 366.878 90.0341 366.893 89.5981L366.778 79.5054C366.648 73.7413 366.988 67.9762 367.797 62.2676C368.109 60.0204 368.897 57.8659 370.109 55.9485C371.322 54.0311 372.93 52.3953 374.827 51.1509C375.117 50.9216 375.477 50.8008 375.847 50.8095C376.063 50.8167 376.275 50.8664 376.472 50.9559C376.669 51.0454 376.846 51.1729 376.994 51.331C377.141 51.4891 377.256 51.6748 377.331 51.8775C377.407 52.0801 377.442 52.2956 377.433 52.5116C377.431 52.7788 377.369 53.0421 377.251 53.2818C377.133 53.5214 376.962 53.7312 376.751 53.8955C375.179 54.8393 373.849 56.1367 372.867 57.6845C371.884 59.2323 371.276 60.9879 371.091 62.8119C370.302 68.7508 369.993 74.7438 370.168 80.7324V89.5797C370.161 90.0279 369.982 90.4562 369.668 90.7757C369.354 91.0952 368.928 91.2814 368.48 91.2956V91.3002ZM368.706 106.499C368.27 106.514 367.846 106.355 367.527 106.058C367.208 105.76 367.02 105.348 367.004 104.912V96.854C367.036 96.4542 367.217 96.0809 367.511 95.8077C367.804 95.5345 368.19 95.3812 368.591 95.3779C369.039 95.3884 369.466 95.5711 369.783 95.8881C370.1 96.205 370.282 96.6319 370.293 97.08C370.293 100.484 370.293 101.956 370.408 104.922C370.389 105.355 370.199 105.764 369.881 106.058C369.562 106.353 369.14 106.51 368.706 106.495V106.499ZM429.133 162.636C429.928 162.654 430.724 162.616 431.513 162.521H483.481C487.902 162.515 492.141 160.755 495.267 157.629C498.393 154.502 500.151 150.263 500.156 145.841C500.145 143.636 499.7 141.454 498.844 139.422C497.989 137.389 496.74 135.545 495.17 133.996C493.6 132.447 491.74 131.224 489.696 130.396C487.652 129.568 485.464 129.151 483.259 129.171H466.358L467.603 127.695C474.282 119.717 480.528 111.389 486.317 102.744C491.76 94.4646 496.977 87.9836 496.977 75.4139C496.732 70.5472 495.315 65.8116 492.847 61.6099C490.38 57.4081 486.934 53.8644 482.802 51.28C476.401 47.8276 469.309 45.8512 462.045 45.4956C458.768 45.1371 455.475 44.9477 452.178 44.9283H450.476C441.518 44.9283 433.917 45.611 430.854 45.611H430.628C428.445 45.6025 426.283 46.0242 424.264 46.852C422.245 47.6799 420.408 48.8976 418.86 50.4355C417.312 51.9735 416.082 53.8015 415.241 55.8152C414.399 57.8288 413.963 59.9884 413.957 62.1707C413.965 66.5898 415.723 70.8257 418.848 73.9504C421.973 77.0752 426.209 78.8339 430.628 78.8412H430.854C436.979 78.8412 444.461 78.1585 451.15 78.1585C453.728 78.1324 456.305 78.2866 458.862 78.6198C459.741 78.6685 460.615 78.781 461.478 78.9565C460.634 80.9734 459.609 82.9095 458.415 84.7409C453.334 92.2941 447.845 99.5638 441.97 106.518C431.652 118.972 421.785 129.54 418.607 132.944C416.658 134.462 415.082 136.406 414.001 138.627C412.92 140.849 412.362 143.288 412.37 145.758C412.4 147.609 412.711 149.444 413.293 151.201C414.398 154.533 416.527 157.432 419.375 159.484C422.223 161.536 425.646 162.638 429.156 162.632L429.133 162.636ZM422.329 69.6388C421.977 69.6509 421.63 69.5463 421.343 69.3411C421.056 69.1359 420.845 68.8416 420.743 68.504C420.143 66.7515 419.831 64.9133 419.82 63.061C419.855 61.7641 420.009 60.4732 420.281 59.2047C420.994 55.6405 423.031 52.479 425.983 50.3575C426.281 50.145 426.636 50.0262 427.002 50.0161C427.212 50.0111 427.42 50.0487 427.615 50.1266C427.81 50.2046 427.987 50.3213 428.135 50.4696C428.284 50.618 428.4 50.795 428.478 50.9898C428.556 51.1846 428.594 51.3932 428.589 51.6029C428.587 51.8701 428.524 52.1334 428.406 52.3731C428.288 52.6127 428.117 52.8225 427.906 52.9867C425.648 54.6664 424.109 57.1382 423.598 59.9059C423.372 60.9112 423.258 61.9384 423.257 62.9687C423.244 64.5445 423.475 66.1127 423.939 67.6184V67.9597C423.939 68.3237 423.831 68.6796 423.629 68.9824C423.427 69.2853 423.14 69.5217 422.804 69.6618L422.329 69.6388ZM440.25 120.674C439.981 120.685 439.713 120.628 439.471 120.509C439.229 120.39 439.021 120.212 438.866 119.992C438.654 119.693 438.535 119.338 438.525 118.972C438.497 118.733 438.536 118.49 438.636 118.271C438.736 118.051 438.893 117.863 439.092 117.727C442.789 114.163 446.183 110.298 449.24 106.172C453.332 101.091 456.974 95.6645 460.126 89.9533C460.237 89.6779 460.428 89.4424 460.675 89.2777C460.922 89.1131 461.213 89.027 461.51 89.0307L461.625 88.9154C461.85 88.911 462.073 88.9521 462.282 89.036C462.49 89.12 462.68 89.2452 462.839 89.4042C462.998 89.5631 463.123 89.7525 463.207 89.961C463.291 90.1695 463.332 90.3928 463.327 90.6175L463.078 91.4109C459.827 97.2942 456.11 102.907 451.962 108.197C448.784 112.557 445.216 116.619 441.302 120.333C441 120.545 440.642 120.663 440.273 120.67L440.25 120.674ZM494.141 150.5H493.915C493.701 150.499 493.491 150.452 493.297 150.363C493.103 150.274 492.931 150.144 492.791 149.983C492.652 149.822 492.548 149.633 492.487 149.429C492.426 149.224 492.41 149.009 492.439 148.798V147.779C492.41 145.257 491.531 142.819 489.943 140.86C488.33 138.868 486.277 137.276 483.946 136.21C483.651 136.088 483.397 135.884 483.214 135.623C483.031 135.361 482.927 135.053 482.913 134.734C482.899 134.507 482.933 134.279 483.014 134.066C483.094 133.853 483.219 133.66 483.38 133.499C483.541 133.338 483.735 133.213 483.948 133.132C484.16 133.052 484.388 133.018 484.615 133.032L485.183 133.147C488.068 134.406 490.602 136.353 492.563 138.816C494.559 141.339 495.674 144.447 495.737 147.663V148.909C495.742 149.12 495.705 149.33 495.627 149.526C495.549 149.722 495.431 149.9 495.282 150.049C495.132 150.198 494.954 150.314 494.758 150.392C494.562 150.47 494.352 150.507 494.141 150.5Z" fill="url(#paint0_linear_230_18)"/>
<defs>
<linearGradient id="paint0_linear_230_18" x1="268.584" y1="162.872" x2="268.424" y2="-0.00131873" gradientUnits="userSpaceOnUse">
<stop stop-color="#FFD24B"/>
<stop offset="1" stop-color="#FFE18D"/>
</linearGradient>
</defs>
</svg>
