<svg width="872" height="896" viewBox="0 0 872 896" fill="none" xmlns="http://www.w3.org/2000/svg">
<g clip-path="url(#clip0_314_39)">
<path d="M814.721 445.209C814.721 454.211 814.394 463.213 813.741 472.051C811.529 505.185 805.063 537.104 794.996 567.455V567.537C794.915 567.863 794.751 568.271 794.588 568.598C790.008 582.178 784.685 595.432 778.627 608.359C767.083 633.234 752.845 656.714 736.476 678.317C727.226 690.591 717.241 702.213 706.604 713.255C672.225 748.927 631.053 777.973 585.22 798.352C557.388 810.789 527.842 819.954 497.064 825.438C474.718 829.446 451.72 831.576 428.224 831.576C342.525 831.576 263.293 803.591 199.204 756.379C151.322 721.114 111.873 675.044 84.3681 621.784C79.4533 612.211 74.9549 602.393 70.8647 592.331C52.1199 547.003 41.8086 497.334 41.8086 445.217C41.8086 441.781 41.8902 438.427 41.9719 434.991C41.9719 432.29 42.1352 429.507 42.2168 426.814C42.2984 425.418 42.3801 423.949 42.4617 422.562C42.7883 416.588 43.2781 410.695 43.9394 404.803C44.266 401.449 44.6742 398.013 45.0824 394.659C45.5722 391.468 45.9805 388.195 46.4703 385.086C47.0418 381.813 47.5316 378.54 48.1929 375.268C49.091 369.865 50.2421 364.634 51.4667 359.313C52.2015 355.958 53.0261 352.686 53.8425 349.331C56.7897 337.873 60.2268 326.586 64.1538 315.536C64.7252 313.896 65.2967 312.345 65.8682 310.786C66.603 308.738 67.4276 306.697 68.244 304.649C69.3869 301.621 70.6197 298.675 71.8443 295.729C73.069 292.783 74.3017 289.918 75.608 287.053C83.3802 269.711 92.4669 253.095 102.615 237.221C103.758 235.426 104.909 233.622 106.134 231.9C107.685 229.525 109.244 227.15 110.877 224.865C118.902 213.325 127.491 202.283 136.741 191.731C136.741 191.649 136.822 191.649 136.822 191.568C169.071 154.581 208.283 123.74 252.312 101.24C286.038 83.8971 322.621 71.4594 361.172 64.7509C382.946 60.907 405.373 58.9402 428.208 58.9402C488.287 58.9402 545.093 72.602 595.759 97.0692C603.368 100.668 610.822 104.512 618.105 108.691C618.839 109.099 619.656 109.507 620.399 109.915C620.644 110.078 620.97 110.241 621.215 110.405C639.878 121.202 657.472 133.395 674.012 147.065C698.897 167.598 721.16 191.168 740.15 217.186C750.053 230.684 759.14 244.925 767.247 259.73C777.721 278.631 786.563 298.593 793.682 319.298C794.09 320.522 794.498 321.755 794.988 322.979C795.396 324.203 795.805 325.517 796.213 326.741C803.985 350.882 809.39 376.084 812.337 402.02C813.072 409.055 813.733 416.172 814.06 423.378C814.468 430.576 814.713 437.864 814.713 445.225L814.721 445.209Z" fill="#FF9B1D"/>
<g style="mix-blend-mode:multiply" opacity="0.05">
<path d="M814.721 445.209C814.721 454.211 814.394 463.212 813.741 472.051C812.598 476.303 810.712 480.4 807.52 483.591C802.687 488.586 794.343 491.532 787.632 493.001C776.995 495.376 765.94 496.437 755.139 497.995C741.881 499.799 729.112 502.574 716.425 506.916C692.602 515.02 669.277 524.593 646.606 535.798C622.783 547.501 598.315 558.135 573.023 566.402C559.519 570.818 545.518 573.601 531.933 577.861C525.548 579.828 519.082 581.297 512.616 582.855C503.693 584.986 495.104 587.85 486.263 589.89C474.8 592.51 463.754 596.354 452.292 598.729C439.36 601.43 426.673 606.172 413.659 608.139C403.266 609.689 393.118 610.595 382.554 609.861C378.056 609.534 373.549 608.881 369.051 608.637C362.993 608.229 356.853 608.31 350.796 607.902C342.035 607.249 333.275 608.065 324.605 609.208C314.62 610.595 305.044 611.093 294.978 609.861C285.483 608.718 275.825 605.609 266.656 602.989C256.998 600.288 246.524 598.492 236.539 598.492C232.612 598.492 228.685 599.227 224.832 599.553C220.741 599.961 216.643 600.125 212.553 600.533C206.658 601.185 200.029 601.104 194.134 600.614C184.558 599.961 175.308 596.525 166.466 592.926C156.808 589.082 146.497 585.483 136.178 583.843C126.846 582.366 117.678 578.93 108.101 580.978C106.55 581.305 105.072 581.223 103.439 581.386C101.39 581.631 99.4309 582.447 97.3817 582.692C94.6794 583.1 92.6302 583.019 90.2626 584.414C89.1196 585.067 88.2134 586.128 87.152 586.952C86.0907 587.768 85.2661 588.838 84.0415 589.49C82.3189 590.47 80.4411 590.715 78.6369 591.457C76.0978 592.437 73.4772 592.682 70.8647 592.355C52.1199 547.028 41.8086 497.359 41.8086 445.242C41.8086 441.806 41.8902 438.451 41.9719 435.016C41.9719 432.314 42.1352 429.531 42.2168 426.838C42.2984 425.443 42.3801 423.974 42.4617 422.586C42.7883 416.612 43.2781 410.72 43.9394 404.827C44.266 401.473 44.6742 398.037 45.0824 394.683C45.5722 391.492 45.9805 388.219 46.4703 385.11C47.0418 381.837 47.5316 378.565 48.1929 375.292C49.091 369.889 50.2421 364.658 51.4667 359.337C52.2015 355.983 53.0261 352.71 53.8425 349.356C56.7897 337.898 60.2268 326.611 64.1538 315.56C64.7252 313.92 65.2967 312.369 65.8682 310.811C66.603 308.762 67.4276 306.722 68.244 304.673C69.3869 301.646 70.6197 298.699 71.8443 295.753C73.069 292.807 74.3017 289.942 75.608 287.078C83.3802 269.735 92.4669 253.119 102.615 237.246C103.758 235.45 104.909 233.647 106.134 231.925C107.685 229.55 109.244 227.175 110.877 224.89C118.902 213.35 127.491 202.308 136.741 191.755C133.385 199.525 129.214 207.874 131.173 216.467C131.744 219.005 132.316 221.046 133.467 223.502C133.63 223.829 133.794 224.155 133.875 224.482C137.067 219.74 140.178 214.908 143.615 210.248C147.95 204.274 152.049 197.892 156.71 192.163C160.556 187.25 165.225 182.835 169.397 178.257C170.875 176.706 174.557 171.875 177.006 172.119C177.823 174.739 175.373 178.338 174.304 180.55C172.753 183.904 170.214 186.769 168.899 190.286C168.491 191.51 167.838 193.804 169.634 193.722C169.961 193.722 171.438 192.498 171.765 192.335C173.896 190.857 175.773 189.144 177.823 187.585C180.77 185.292 184.044 183.414 187.073 181.121C191.081 178.012 195.261 175.066 199.351 172.038C210.561 164.015 221.941 155.675 233.812 148.64C246.336 141.115 259.186 134.733 272.363 128.596C279.319 125.405 286.111 121.969 293.239 119.023C298.48 116.811 304.203 115.424 309.771 114.028C314.433 112.886 319.347 112.886 324.181 112.388C328.189 111.98 332.206 111.572 336.214 111.572C339.733 111.653 343.17 110.919 346.689 110.919C348.82 110.919 350.698 111.408 352.747 111.898C353.318 111.98 355.449 112.224 355.857 112.877C357.743 115.824 349.31 115.252 348.085 115.824C343.089 118.198 339.407 123.348 335.316 126.866C331.716 130.057 327.952 132.84 324.515 136.275C321.241 139.548 316.988 142.658 315.265 147.073C314.694 148.705 313.714 151.08 314.694 152.72C315.918 154.687 318.376 154.197 320.18 153.863C325.503 152.802 330.655 151.161 335.896 149.529C342.444 147.481 349.073 145.604 355.539 143.147C361.188 141.017 366.593 139.303 372.724 138.487C378.619 137.753 384.513 136.52 390.408 135.786C393.927 135.378 397.282 134.806 400.801 134.888C403.748 134.888 406.45 133.99 409.398 134.072C414.721 134.154 410.785 139.883 408.173 141.433C399.576 146.428 391.069 152.067 381.076 154.034C370.03 156.246 358.568 158.041 347.848 161.722C340.239 164.423 332.377 166.717 324.85 169.655C320.76 171.295 316.743 173.009 312.734 174.731C307.003 177.188 301.599 180.297 295.876 182.835C286.952 186.761 279.18 192.571 271.073 198.056C263.546 203.132 256.5 208.771 249.299 214.256C242.833 219.169 237.021 224.318 231.371 230.211C226.293 235.287 221.631 241.253 218.766 247.806C215.818 254.678 212.136 262.782 211.973 270.307C211.891 276.117 215.165 283.152 220.08 286.425C225.73 290.187 232.767 293.868 239.641 293.786C244.638 293.705 249.381 293.786 254.296 292.807C261.333 291.501 267.963 288.718 275.253 288.302C283.025 287.894 290.642 287.078 298.496 287.894C307.583 288.792 315.682 290.84 324.115 294.521C332.059 298.12 339.178 304.012 346.46 308.836C356.772 315.626 365.695 324.219 374.537 332.65C379.452 337.31 383.787 342.468 389.028 346.72C393.118 350.156 397.38 353.428 401.715 356.374C411.537 363.083 423.081 367.498 434.535 370.363C443.621 372.656 454.259 374.288 463.346 371.587C470.22 369.62 476.441 366.021 483.315 364.226C487.324 363.165 492.075 363.083 496.166 363.981C502.795 365.368 509.098 365.947 515.972 365.866C519.327 365.784 522.601 365.376 526.038 365.131C529.557 364.805 532.667 365.621 536.104 366.437C538.48 367.008 541.917 368.404 538.888 370.934C535.533 373.717 528.659 372.819 524.569 372.819C517.286 372.819 509.996 372.574 502.795 373.717C500.256 374.125 492.729 375.194 492.239 378.63C491.667 383.045 502.468 382.882 504.599 382.556C511.228 381.658 517.858 381.086 524.487 380.589C532.676 380.017 540.856 382.058 548.881 382.882C556.988 383.698 564.842 386.155 573.031 386.644C576.631 386.889 579.823 385.991 583.342 385.257C588.992 384.033 594.225 382.474 599.711 380.752C608.716 377.969 617.476 374.696 626.718 372.729C635.151 371.016 642.515 371.179 650.949 372.811C654.876 373.546 658.974 374.117 662.983 374.696C666.91 375.268 671.008 375.104 674.935 375.594C686.144 376.9 698.097 372.811 708.163 368.641C720.36 363.483 731.814 356.448 744.501 352.522C752.527 349.984 760.789 348.678 769.141 347.944C771.108 347.699 773.231 346.883 775.199 347.373C776.26 347.618 777.084 348.352 778.064 348.597C780.685 349.413 781.175 347.617 782.073 345.569C782.971 343.684 784.367 342.052 784.938 340.003C785.51 338.036 786 335.996 786.661 334.029C787.396 331.654 787.314 329.369 788.139 327.076C788.71 325.852 792.229 319.47 793.707 319.306H793.951C794.849 319.633 794.931 321.6 795.013 322.987C795.013 323.395 795.094 323.722 795.094 323.966C795.258 324.946 795.584 325.933 796.237 326.749C804.01 350.89 809.414 376.092 812.361 402.028C809.414 401.049 806.467 400.061 803.52 399.327C799.185 398.184 794.678 397.695 790.261 396.87C786.171 396.136 782.154 395.075 778.064 394.577C769.467 393.598 760.381 395.883 752.527 398.911C748.518 400.461 744.591 401.775 740.819 403.905C737.219 405.79 733.7 407.667 730.018 409.308C726.173 410.948 722.328 412.499 718.311 413.886C712.253 415.935 706.685 419.044 700.628 421.166C691.296 424.439 682.209 429.27 672.633 431.555C663.709 433.767 655.031 435.807 645.871 436.297C638.017 436.787 630.073 434.665 622.13 435.726C619.019 436.134 616.072 437.195 612.961 437.774C610.341 438.182 607.802 439.406 605.107 439.496C600.854 439.741 596.756 439.904 592.502 440.312C585.546 441.047 578.672 441.7 571.708 441.789C566.548 441.789 561.152 442.361 556.074 443.014C551.249 443.666 546.416 443.911 541.591 444.646C537.011 445.299 532.014 446.531 527.761 448.571C526.536 449.143 523.426 450.538 523.671 452.252C523.834 453.558 525.556 454.219 526.536 454.627C529.892 456.014 533.574 455.77 537.174 455.77C540.203 455.77 543.15 455.443 546.179 455.117C550.351 454.709 554.531 455.28 558.621 454.79C572.124 453.24 584.975 455.198 598.16 458.063C606.185 459.785 614.447 460.438 622.636 459.205C633.927 457.573 644.736 454.047 655.945 452.252C675.67 449.061 695.313 445.38 714.8 441.455C724.214 439.651 733.219 436.46 742.632 434.828C746.804 434.012 750.984 433.277 755.237 432.453C760.968 431.31 766.863 431.066 772.668 430.241C781.346 429.017 789.608 425.989 798.287 424.92C803.61 424.267 808.843 423.614 814.084 423.37C814.492 430.568 814.737 437.856 814.737 445.217L814.721 445.209Z" fill="#FF6600"/>
</g>
<g style="mix-blend-mode:multiply" opacity="0.05">
<path d="M736.476 678.317C679.099 754.085 594.38 808.006 497.063 825.43C496.982 825.267 496.818 825.104 496.655 824.941C491.414 819.456 485.691 814.633 480.041 809.475C473.739 803.664 467.436 797.935 460.562 792.949C448.365 784.192 435.106 776.749 422.011 769.469C408.017 761.618 394.098 753.596 378.79 748.682C370.52 745.981 362.094 743.035 353.498 741.321C342.941 739.273 331.969 738.783 321.249 737.559C287.768 733.715 252.165 736.171 220.243 747.622C213.695 749.996 206.74 752.363 200.6 755.644C200.11 755.889 199.702 756.134 199.212 756.378C151.33 721.114 111.881 675.044 84.376 621.784C87.8131 620.56 91.9849 619.246 94.9322 619.246C97.8794 619.246 100.663 619.083 103.529 619.246C108.525 619.409 113.514 621.784 118.265 623.416C131.36 627.995 144.129 632.092 158.294 630.451C161.731 630.043 165.331 629.554 168.605 628.648C171.797 627.832 174.744 626.191 178.018 625.62C182.272 624.886 187.432 625.294 191.848 625.375C195.612 625.538 199.049 626.599 202.731 627.342C206.086 627.913 209.442 628.158 212.797 628.819C216.398 629.554 219.672 630.623 223.354 630.786C227.28 630.868 231.126 630.378 235.061 629.97C242.588 628.991 250.124 627.024 257.324 624.404C262.974 622.437 268.297 622.274 274.265 621.621C289.164 619.981 303.158 625.22 317.151 629.643C325.176 632.182 333.193 632.345 341.464 632.998C349.897 633.651 358.241 633.977 366.756 633.814C379.606 633.569 392.783 632.263 405.552 630.704C410.703 630.133 415.863 629.39 420.941 628.33C430.436 626.444 440.094 625.057 449.589 623.253C472.832 618.593 496.492 613.109 519.164 605.829C529.148 602.638 538.888 598.631 548.955 595.44C553.126 594.134 557.388 593.147 561.642 592.331C565.813 591.514 570.238 590.445 574.329 592.331C576.868 593.555 578.337 595.685 577.031 598.549C575.725 601.251 571.463 603.462 569.095 604.931C565.413 607.143 561.65 607.878 557.633 609.183C550.351 611.64 543.15 614.586 535.859 617.034C531.442 618.512 526.854 619.246 522.356 620.307C517.033 621.531 512.126 623.58 507.048 625.465C502.631 627.187 498.868 629.962 494.279 631.684C488.222 633.977 481.837 635.691 475.698 638.066C459.982 644.203 445.246 653.286 428.55 656.804C423.227 657.946 417.912 659.668 412.671 661.464C410.295 662.198 406.532 663.594 406.532 666.867C406.532 671.861 413.732 673.494 417.251 674.31C422.737 675.615 427.971 677.664 433.457 678.97C437.22 679.786 440.413 681.671 443.85 683.385C449.009 685.923 453.671 687.963 459.321 689.277C471.355 692.142 483.715 694.19 496.076 693.774C513.179 693.121 530.128 689.685 547.314 690.665C554.841 691.154 561.715 692.795 568.924 694.753C575.88 696.557 582.754 697.7 589.881 698.842C608.218 701.952 627.044 700.972 645.536 699.903C658.549 699.169 671.726 696.957 684.577 694.5C693.418 692.778 702.832 692.044 711.094 688.445C715.021 686.804 719.119 685.988 723.046 684.111C725.422 682.969 727.544 681.981 730.002 681.002C731.806 680.267 734.174 678.953 736.468 678.3L736.476 678.317Z" fill="#C2313C"/>
</g>
<g style="mix-blend-mode:multiply" opacity="0.1">
<path d="M794.996 567.529C790.253 581.517 784.848 595.105 778.627 608.359C778.3 608.522 778.056 608.686 777.729 608.849C773.149 611.224 768.806 614.333 765.124 617.932C762.258 620.715 758.739 622.764 755.221 624.641C752.845 625.783 750.722 627.342 748.346 628.485C745.726 629.709 743.268 631.349 740.819 632.737C736.729 635.193 733.21 638.384 729.602 641.494C728.295 642.636 727.226 643.95 725.838 645.093C724.777 645.909 723.625 646.643 722.646 647.549C720.597 649.434 718.637 651.393 716.425 653.115C712.008 656.714 706.603 659.579 701.525 662.117C698.088 663.839 694.488 664.737 690.887 665.879C686.879 667.103 682.944 668.172 678.935 669.152C674.927 670.213 671.081 671.527 667.146 672.751C662.893 674.138 658.468 674.881 653.969 675.534C647.013 676.513 640.058 676.268 633.094 677.827C629.493 678.562 625.975 679.712 622.293 680.529C618.774 681.263 615.337 682.495 611.736 682.985C605.515 683.801 599.539 683.801 593.237 682.822C591.106 682.495 588.983 682.577 586.852 682.495C585.464 682.414 584.068 682.087 582.68 682.087C581.782 682.087 581.047 682.087 580.223 682.006C574.492 681.108 568.352 681.842 562.629 682.332C556.735 682.903 550.759 683.23 544.864 683.556C541.917 683.801 539.051 683.638 536.186 683.312C532.83 682.985 529.393 683.311 526.038 683.556C518.755 684.046 511.22 683.475 503.938 682.495C504.182 677.999 505.905 676.766 506.966 675.134C507.538 674.236 507.619 673.583 508.599 673.004C509.742 672.269 510.975 672.025 512.2 671.535C513.098 671.127 513.832 670.719 514.82 670.474C516.869 669.903 518.992 669.658 521.041 669.331C523.254 668.923 525.54 668.352 527.834 668.189C530.455 668.026 533.157 668.434 535.769 668.515C537.982 668.597 540.268 668.76 542.48 668.923C546.734 669.168 551.077 669.821 555.167 670.89C559.176 672.033 563.193 673.347 567.364 674.326C580.133 677.354 592.983 682.267 606.242 679.402C607.883 679.076 609.434 678.913 610.993 678.505C613.941 677.852 616.561 676.538 619.509 675.885C626.954 674.253 634.653 673.02 641.935 670.564C645.291 669.421 648.646 668.189 651.838 666.638C654.867 665.088 657.57 663.039 660.68 661.644C663.791 660.256 666.738 658.616 669.93 657.228C672.877 655.923 675.906 654.609 678.935 653.303C686.054 650.275 693.092 646.676 699.892 642.832C706.358 639.151 712.171 634.81 718.229 630.394C725.266 625.237 731.814 619.344 739.023 614.439C744.183 610.922 749.661 607.894 755.147 604.948C758.421 603.144 762.838 601.675 765.295 598.729C768.242 595.212 770.21 590.788 772.659 586.944C775.28 582.855 778.635 579.501 782.562 576.718C784.448 575.331 786.489 574.18 788.375 572.711C790.506 570.997 792.792 569.275 795.004 567.553L794.996 567.529Z" fill="#C2313C"/>
</g>
<g style="mix-blend-mode:multiply" opacity="0.2">
<path d="M669.277 131.42C669.441 131.991 669.604 132.644 669.767 133.305C669.032 133.713 668.787 133.387 669.277 131.42Z" fill="#470024"/>
</g>
<g style="mix-blend-mode:multiply" opacity="0.1">
<path d="M90.2621 285.968C94.189 277.676 97.3731 266.602 103.17 259.305C104.525 257.6 106.852 256.474 108.46 255.037C111.154 252.63 114.852 245.725 119.081 245.635C124.502 245.521 117.767 253.944 124.355 253.511C131.36 253.054 136.536 245.742 141.827 242.395C143.949 241.049 149.174 238.682 151.656 239.327C154.571 240.086 153.583 241.057 154.089 243.946C156.816 243.709 158.359 242.306 160.261 240.453C164.874 235.964 168.621 231.606 174.442 228.489C177.267 226.971 188.697 219.275 192.428 222.629C196.191 226.016 185.472 238.086 184.1 239.759C177.896 247.341 173.397 257.82 171.16 267.434C167.674 282.426 179.373 300.071 192.215 306.453C195.53 308.101 198.322 310.321 201.449 312.304C205.98 315.177 210.364 316.091 215.491 317.307C226.733 319.959 237.583 324.889 249.168 326.186C260.925 327.508 273.824 326.652 285.368 324.285C291.662 322.995 300.414 321.583 306.505 324.636C311.109 326.945 314.081 331.695 317.045 335.596C320.196 339.734 326.319 342.729 330.662 345.651C336.475 349.568 343.113 352.261 349.268 355.722C353.203 357.933 356.567 360.896 360.47 363.132C364.413 365.385 367.719 366.454 371.026 369.612C375.924 374.297 380.676 379.667 380.349 386.84C380.153 391.206 376.822 391.566 374.634 394.871C379.835 398.886 386.627 399.425 391.844 403.016C393.412 404.093 397.935 406.044 397.249 408.476C396.139 412.426 384.709 411.601 382.7 411.593C360.29 411.463 337.765 410.908 315.363 411.463C307.599 411.658 299.557 412.646 291.948 414.254C289.262 414.825 286.127 415.535 284.674 418.122C288.462 421.354 293.418 421.974 298.177 422.562C309.632 423.99 320.931 426.895 332.393 428.528C343.431 430.103 352.983 434.983 363.686 437.538C368.005 438.566 372.177 440.084 376.504 441.047C382.227 442.32 387.778 442.181 393.551 442.704C416.835 444.817 440.298 439.357 463.729 439.447C472.612 439.48 481.037 439.104 489.83 438.076C498.043 437.113 504.607 434.967 512.363 432.265C516.853 430.707 521.449 430.037 525.989 428.666C530.585 427.279 534.985 425.32 539.68 424.243C548.024 422.317 556.318 420.84 564.842 420.84C572.336 420.84 579.513 422.872 586.983 422.276C598.87 421.329 609.385 416.555 621.019 414.972C642.433 412.066 662.77 406.337 682.878 398.29C690.479 395.254 699.223 393.981 707.199 392.969C709.493 392.675 711.518 391.574 713.796 391.288C715.861 391.027 717.78 391.557 719.845 391.06C724.287 389.99 728.075 387.518 731.806 385.224C737.08 381.976 742.533 377.047 748.232 374.623C754.396 372.003 761.254 370.599 767.605 368.494C770.095 367.67 772.561 366.511 775.035 365.727C776.749 365.189 779.296 365.376 780.627 364.111C776.586 367.996 769.851 369.008 764.895 371.122C760.127 373.154 753.686 375.945 749.701 379.381C746.632 382.025 744.901 384.531 741.317 386.636C733.928 390.962 728.401 396.454 719.854 398.756C706.93 402.232 694.61 407.725 681.58 411.128C668.379 414.572 654.957 416.604 641.805 419.452C613.99 425.483 585.309 430.486 556.931 433.22C545.648 434.306 534.128 436.248 523.115 438.99C518.772 440.067 515.375 442.671 510.975 443.724C505.529 445.029 500.443 446.931 495.12 448.718C484.311 452.35 473.559 455.451 462.921 459.597C457.378 461.76 447.67 461.784 445.58 468.468C449.605 471.284 454.61 470.419 459.304 470.411C462.717 470.411 466.742 471.023 470.048 470.329C473.902 469.529 479.053 467.391 482.686 465.8C486.605 464.086 490.271 462.6 494.304 461.156C498.614 459.605 500.002 457.924 504.337 457.998C506.803 458.038 509.415 458.34 511.767 457.663C513.906 457.051 515.147 455.737 517.849 456.724C516.804 458.952 512.012 460.789 509.848 461.931C506.746 463.564 503.986 463.506 501.268 466.11C498.427 468.827 497.014 470.288 501.202 472.427C505.864 474.801 513.032 473.741 518.167 473.594C534.928 473.112 550.979 466.142 567.895 469.57C577.447 471.504 586.575 473.904 596.257 475.487C607.238 477.282 620.08 477.699 631.142 476.393C642.662 475.03 653.798 471.504 665.448 470.419C671.661 469.839 678.127 468.093 684.266 466.934C692.283 465.416 700.382 464.151 708.432 462.666C718.457 460.821 728.605 458.397 738.615 456.773C746.346 455.517 754.224 455.043 761.956 453.721C764.381 453.305 766.813 453.166 769.279 453.338C772.047 453.533 771.116 454.105 772.994 454.578C775.769 455.272 777.713 455.753 780.382 456.847C782.774 457.826 787.501 457.459 788.016 460.732C770.798 472.802 746.624 474.091 726.956 479.641C713.641 483.395 700.594 487.965 687.409 492.128C671.791 497.049 656.01 501.431 640.417 506.426C625.697 511.143 611.222 516.774 596.535 521.622C584.452 525.605 572.81 530.461 560.588 533.946C554.359 535.725 548.701 538.712 542.562 540.638C536.455 542.556 530.52 544.204 524.486 546.432C519.433 548.301 514.273 549.672 509.064 551.002C502.223 552.749 496.149 555.63 489.511 557.882C482.752 560.184 475.714 561.09 469.06 563.783C463.762 565.929 458.659 568.28 453.091 569.757C444.323 572.083 435.588 574.18 426.746 576.229C420.5 577.673 414.549 580.53 408.262 581.688C400.955 583.043 394.212 583.28 386.848 583.549C380.055 583.802 373.622 585.157 366.691 585.132C360.927 585.116 355.024 584.667 349.309 585.475C339.855 586.822 330.573 586.683 320.947 586.683C317.347 586.683 313.738 586.683 310.138 586.683C306.505 586.683 301.566 587.622 298.088 586.34C298.626 585.026 304.929 584.357 307.068 583.933C311.052 583.141 315.412 583.59 319.478 583.59C323.854 583.59 328.254 583.876 332.565 583.247C337.512 582.521 342.745 582.684 347.66 581.729C354.616 580.383 362.306 579.616 369.099 577.551C373.255 576.286 376.365 573.691 380.349 572.213C383.68 570.973 387.101 570.883 390.546 570.042C396.024 568.704 401.315 567.741 406.94 566.925C410.034 566.476 413.226 566.672 416.32 566.272C421.431 565.611 425.864 563.522 430.656 561.881C438.951 559.049 446.544 556.022 454.545 552.512C458.643 550.709 462.994 548.652 465.705 544.849C471.322 536.957 457.998 538.491 453.834 539.536C442.307 542.441 430.975 547.028 419.12 547.901C413.887 548.285 408.924 549.101 403.65 549.411C397.061 549.795 390.963 551.1 384.26 551.027C378.022 550.962 372.193 552.382 366.037 552.643C357.384 553.01 348.721 553.72 340.067 554.495C330.377 555.369 320.833 557.344 311.183 558.494C303.966 559.359 296.806 559.523 289.564 560.543C278.943 562.036 268.77 564.852 258.247 566.933C252.418 568.092 246.597 569.798 240.808 570.891C234.522 572.083 228.26 570.891 222.096 569.838C211.597 568.043 201.123 567.308 190.705 564.689C176.393 561.09 162.898 553.092 152.171 543.29C141.476 533.521 129.433 527.408 115.105 525.001C103.774 523.091 93.1277 525.621 82.5797 529C74.2523 531.66 66.3984 532.958 57.6792 532.477C47.572 531.922 52.9277 523.312 53.0991 516.579C53.54 499.097 53.2624 481.69 54.9197 464.265C55.4749 458.397 61.002 405.791 69.8192 410.091C70.7907 414.498 71.1581 418.367 71.599 422.79C71.9419 426.324 74.7993 428.217 75.1259 431.515C77.6812 431.327 80.0978 421.134 80.6366 418.881C82.5878 410.769 84.7677 402.697 86.4087 394.463C88.4905 384.033 89.5763 373.782 88.6211 363.099C88.3027 359.525 87.8945 354.775 85.6902 351.723C83.7798 349.078 82.5307 349.601 79.4365 349.544C74.0482 349.454 71.7051 343.537 71.648 338.73C71.5581 330.577 73.6155 322.963 76.6689 315.405C79.51 308.379 83.1593 301.686 85.4535 294.415C86.2454 291.918 89.0048 284.785 90.2784 285.944L90.2621 285.968Z" fill="#FF6600"/>
</g>
<g style="mix-blend-mode:multiply" opacity="0.1">
<path d="M706.595 713.255C672.216 748.927 631.045 777.973 585.211 798.351C578.092 796.466 570.475 793.194 563.274 792.867C558.776 792.704 549.608 792.541 546.089 788.697C542.57 784.935 552.065 784.118 555.094 783.539C558.531 782.968 565.324 783.539 566.475 779.042C569.095 769.224 534.961 766.033 529.23 764.556C519.409 762.018 508.273 762.344 498.206 762.018C492.149 761.773 485.601 760.712 479.952 758.827C474.22 756.942 468.571 755.881 462.848 754.167C451.712 750.731 439.849 748.111 428.224 746.724C426.338 746.561 413.324 745.663 412.916 743.696C418.974 741.566 426.011 739.852 432.314 738.783C434.935 738.375 435.914 739.354 437.964 739.844C440.666 740.497 443.368 740.579 446.152 741.313C473.159 748.348 500.909 748.511 528.659 748.021C532.341 747.94 535.451 746.544 539.051 746.389C541.917 746.144 544.864 746.389 547.73 746.389C556.898 746.471 566.148 745.165 574.908 742.709C582.762 740.578 591.277 739.436 598.968 737.143C601.344 736.408 609.361 735.592 609.687 732.727C605.76 731.34 599.948 732.483 595.776 732.483C588.82 732.483 582.027 732.646 575.063 731.666C566.956 730.606 558.858 730.769 550.751 729.7C545.509 729.047 540.113 729.292 535.688 725.937C537.982 722.828 544.448 722.257 547.885 721.604C555.249 720.298 562.785 719.555 570.149 718.494C588.812 715.956 607.475 714.977 626.22 714.079C636.368 713.589 646.597 711.786 656.753 712.194C664.607 712.52 672.224 713.998 680.078 713.916C686.054 713.834 692.112 713.589 698.088 713.834C700.954 713.916 703.819 713.671 706.603 713.263L706.595 713.255Z" fill="#CC0000"/>
</g>
<g opacity="0.2">
<path d="M239.152 339.456C238.017 345.537 235.078 352.947 238.327 358.905C240.123 362.193 242.573 363.116 245.699 364.715C254.109 369 263.538 372.093 273.057 370.689C280.185 369.645 288.7 368.143 295.092 364.683C299.852 362.112 302.416 356.097 303.722 351.062C305.044 345.961 304.865 340.06 299.819 337.31C298.489 336.584 297.28 335.466 295.843 334.935C293.819 334.192 290.92 334.095 288.855 333.817C283.646 333.123 278.495 333.254 273.253 333.254C269.677 333.254 266.077 333.115 262.501 333.229C259.276 333.327 256.207 334.225 253.096 335.017C248.002 336.314 242.042 336.053 239.152 339.456V339.456Z" fill="#E2422B"/>
<path d="M307.388 360.382C309.861 357.811 312.596 355.583 315.609 353.698C317.43 355.118 320.344 355.395 321.283 357.746C322.206 360.039 322.377 361.451 320.614 363.483C319.095 365.229 316.621 366.152 314.392 365.638C311.984 365.083 308.58 364.005 308.171 361.165L307.396 360.39L307.388 360.382Z" fill="#E2422B"/>
<path d="M281.801 375.888C286.194 373.725 288.945 372.126 293.117 371.032C295.101 370.51 296.807 369.384 298.815 368.967C300.864 368.551 302.652 368.11 304.751 368.135C307.371 368.159 308.62 367.719 310.523 369.669C311.902 371.081 313.119 372.738 314.213 374.362C315.552 376.353 316.335 377.904 315.78 380.352C315.07 383.47 313.274 385.959 311.168 388.293C308.057 391.737 303.02 394.177 298.758 395.875C294.496 397.564 287.328 400.535 282.642 399.89C280.111 399.539 277.36 398.225 274.854 397.589C270.878 396.577 266.771 396.577 262.738 395.875C258.525 395.132 253.186 392.7 254.819 387.542C256.517 382.188 264.191 378.287 269.212 377.259C271.572 376.778 273.874 376.508 276.233 376.068C278.16 375.708 279.328 375.945 281.818 375.896L281.801 375.888Z" fill="#E2422B"/>
<path d="M328.32 367.359C326.059 369.996 324.638 372.958 324.059 376.247C325.055 376.1 325.569 376.72 326.54 376.737C327.243 376.737 327.879 376.312 328.508 376.092C330.304 375.455 331.627 375.211 332.133 373.178C332.402 372.101 332.451 370.2 331.774 369.351C331.178 368.608 328.451 367.449 327.537 367.351H328.312L328.32 367.359Z" fill="#E2422B"/>
<path d="M370.97 450.302C357.605 449.037 344.339 446.139 330.86 446.352C316.132 446.588 300.62 452.252 289.443 461.76C284.659 465.824 279.254 469.84 279.336 476.695C279.393 481.616 282.34 484.97 286.137 487.737C292.472 492.348 299.567 494.168 306.963 496.225C314.107 498.216 321.348 499.995 328.745 500.721C335.619 501.399 342.371 501.872 349.261 500.958C356.315 500.011 363.369 497.792 370.145 495.686C375.305 494.078 381.828 491.752 384.865 486.905C386.882 483.689 388.008 480.408 388.065 476.638C388.188 469.121 388.686 461.915 383.053 456.153C379.591 452.611 376.105 450.171 370.97 450.31V450.302Z" fill="#E2422B"/>
<path d="M405.096 451.077C406.165 454.448 407.782 457.5 409.929 460.242C411.619 458.651 415.946 459.581 418.126 459.605C420.248 459.622 421.865 459.14 423.922 458.814C427.155 458.291 431.441 457.908 431.482 453.795C431.531 448.702 425.751 447.943 421.783 447.976C416.387 448.016 410.688 446.874 406.655 451.085H405.104L405.096 451.077Z" fill="#E2422B"/>
<path d="M287.222 505.341C292.398 506.075 297.444 506.622 302.603 507.046C307.73 507.463 312.833 507.822 317.797 509.201C320.956 510.082 323.161 510.572 324.875 513.477C325.781 515.02 326.41 515.999 325.618 517.721C324.418 520.333 321.495 521.426 318.989 522.389C315.013 523.924 311.241 525.768 307.045 526.658C298.505 528.478 289.851 531.31 280.977 530.991C276.78 530.836 271.474 528.837 269.343 524.944C267.212 521.059 266.689 517.044 268.559 513.045C270.804 508.222 275.409 505.3 280.626 505.316C282.585 505.316 284.218 505.479 286.087 506.108C287.287 506.508 289.484 506.638 287.214 505.333L287.222 505.341Z" fill="#E2422B"/>
<path d="M68.5546 487.508C67.5096 495.417 66.7666 502.819 66.9462 510.743C67.0115 513.739 68.2607 517.387 70.9385 518.97C73.9755 520.765 79.6333 520.512 82.8254 519.582C87.5279 518.211 92.1897 514.832 96.3615 512.31C99.5945 510.352 101.048 507.667 103.399 504.859C107.081 500.46 108.608 494.601 109.734 489.026C110.992 482.816 110.82 475.724 110.314 469.423C109.824 463.286 107.089 457.141 104.681 451.542C102.272 445.935 98.4842 442.663 92.1815 443.34C87.5035 443.846 82.605 446.735 78.5066 448.914C75.4696 450.53 73.5918 453.419 71.7957 456.259C70.1629 458.846 69.6649 462.143 68.7097 465.033C67.8851 467.53 67.6728 470.207 67.1585 472.769C66.1135 477.984 66.8809 484.677 68.5382 487.5L68.5546 487.508Z" fill="#E2422B"/>
<path d="M90.2629 427.05C89.4955 423.468 87.3402 418.302 88.9812 414.915C89.2832 414.286 89.8874 413.397 90.2711 412.752C90.9569 411.585 92.0101 410.353 93.5204 410.116C97.2514 409.52 100.566 413.34 101.219 416.482C101.856 419.542 102.289 423.851 100.378 426.716C99.1455 428.568 94.3532 430.764 92.5897 428.601L90.2629 427.05V427.05Z" fill="#E2422B"/>
<path d="M98.794 396.038C98.0266 386.016 94.4099 373.97 101.088 365.05C103.333 362.055 106.991 357.346 111.359 357.925C113.963 358.268 116.526 361.271 118.208 363.124C120.837 366.013 122.437 369.686 123.646 373.366C124.674 376.5 126.046 379.903 126.029 383.249C126.013 386.84 125.327 391.468 123.997 394.838C122.127 399.564 118.225 404.077 113.342 405.554C109.889 406.59 106.46 405.603 103.415 403.62C101.243 402.208 98.6307 398.772 98.8021 396.046L98.794 396.038Z" fill="#E2422B"/>
<path d="M91.8137 347.209C92.5484 350.58 93.8955 353.632 95.8712 356.374C96.8509 355.55 98.2388 355.656 99.3981 355.191C100.745 354.652 102.239 353.526 103.023 352.245C104.019 350.604 104.713 348.393 104.068 346.426C103.448 344.541 100.313 342.337 98.7532 341.178C95.4467 338.722 93.471 341.66 91.0381 344.125L91.8137 347.226V347.209Z" fill="#E2422B"/>
<path d="M447.736 500.689C451.549 498.861 456.382 495.915 460.775 494.878C463.501 494.233 466.13 493.099 468.824 492.315C475.462 490.365 482.565 489.802 489.431 489.231C493.276 488.912 496.991 488.986 500.811 488.316C503.628 487.827 506.338 487.313 509.171 486.937C517.556 485.819 525.712 483.379 534.105 482.228C538.089 481.681 542.252 480.759 546.261 480.506C548.833 480.343 551.331 479.739 553.903 479.747C558.719 479.772 563.528 478.988 568.361 478.939C586.779 478.752 603.279 485.795 620.628 490.797C624.571 491.932 628.58 492.846 632.621 493.589C637.805 494.543 644.296 496.437 649.504 495.123C655.235 493.67 653.35 487.933 649.586 485.264C645.292 482.22 639.838 481.282 634.695 481.306C631.78 481.314 628.514 480.865 625.657 481.371C621.191 482.163 613.86 483.697 612.888 489.116C612.562 490.961 613.068 492.911 613.182 494.756C613.256 495.988 613.272 497.253 613.092 498.477C612.472 502.623 607.606 506.973 604.202 509.062C602.25 510.262 600.275 510.915 598.389 512.294C596.135 513.934 593.85 514.922 591.376 516.203C587.694 518.113 583.922 519.68 580.273 521.647C577.75 523.01 575.219 523.614 572.615 524.666C565.438 527.58 558.458 530.706 550.996 532.648C545.142 534.174 539.566 536.696 533.656 538.059C530.169 538.867 527.141 540.589 523.785 541.78C522.209 542.335 520.65 542.817 519.009 543.143C516.348 543.666 514.135 544.841 511.531 545.469C502.118 547.73 493.251 551.819 483.552 551.843C479.438 551.851 476.988 551.704 474.703 548.007C472.466 544.392 470.767 540.899 469.249 536.924C467.649 532.721 465.624 528.551 461.55 526.29C457.019 523.777 452.039 523.189 447.712 520.235C443.728 517.509 442.299 513.363 442.307 508.589C442.307 506.834 442.16 505.275 443.254 503.741C444.193 502.427 445.777 501.725 447.728 500.681L447.736 500.689Z" fill="#E2422B"/>
<path d="M649.357 478.205C652.664 477.682 655.856 476.809 658.95 475.593C659.464 475.414 659.97 475.218 660.469 475.014C661.685 474.793 663.465 475.103 664.706 475.103C666.33 475.103 669.196 474.63 670.567 475.854C672.927 477.952 670.87 480.286 668.771 481.91C667.8 482.661 665.669 483.33 664.469 483.567C663.816 483.697 663.171 483.485 662.526 483.591C661.693 483.73 661.048 484.456 660.215 484.489C659.603 484.513 657.856 483.779 657.293 483.632C656.378 483.403 655.154 483.265 654.345 482.702C652.696 481.559 653.007 479.217 651.668 478.205H649.341H649.357Z" fill="#E2422B"/>
<path d="M346.991 665.643C336.647 667.136 326.826 666.826 318.246 672.89C315.111 675.101 311.706 678.129 309.29 681.173C303.403 688.584 316.858 689.636 321.854 690.273C331.994 691.554 341.693 693.995 351.049 698.083C359.278 701.682 368.194 703.959 376.97 701.013C382.775 699.063 387.616 697.855 390.147 691.824C392.457 686.315 389.943 680.569 385.436 677.068C379.697 672.612 374.023 668.058 367.328 665.292C359.703 662.15 353.49 662.125 345.522 664.174L346.991 665.651V665.643Z" fill="#E2422B"/>
<path d="M330.786 651.899C331.17 651.638 325.602 654.919 325.144 655.972C324.744 656.894 324.908 657.432 325.618 658.045C327.683 659.832 331.406 660.093 333.97 660.232C335.921 660.33 337.742 659.816 339.668 659.742C340.852 659.701 341.897 659.66 343.073 659.399C345.31 658.893 347 658.151 348.894 656.812C350.249 655.849 350.11 654.054 349.963 652.519C349.776 650.544 348.861 649.124 347.024 648.325C341.571 645.958 335.088 648.659 330.296 651.409L330.786 651.899Z" fill="#E2422B"/>
<path d="M282.169 693.138C283.638 693.032 288.259 692.264 290.512 692.713C291.966 692.999 293.394 693.546 294.848 693.872C298.954 694.794 303.134 695.374 307.241 696.329C310.253 697.03 311.837 697.659 313.739 700.026C314.997 701.584 315.846 702.458 315.503 704.612C314.172 713.035 304.457 715.099 297.387 715.948C291.811 716.617 286.145 716.266 280.609 715.499C274.552 714.659 268.371 714.063 262.379 712.79C258.044 711.868 253.717 711.011 249.447 709.827C246.63 709.044 243.879 708.432 242.189 705.779C239.389 701.389 241.258 696.557 245.577 694.166C251.961 690.632 260.371 690.689 267.473 691.277C270.159 691.497 272.739 692.06 275.425 692.134C277.687 692.199 279.907 693.309 282.169 693.138V693.138Z" fill="#E2422B"/>
</g>
<g opacity="0.5">
<g style="mix-blend-mode:multiply" opacity="0.2">
<path d="M767.247 259.714C759.14 267.736 748.665 274.281 739.17 278.207C724.679 284.181 708.718 282.622 693.582 284.344C690.716 284.67 688.504 286.148 685.81 286.556C683.107 286.964 680.242 286.066 677.539 286.392C670.665 287.127 664.934 288.604 657.815 288.522C648.565 288.522 640.303 290.653 631.053 290.653C622.538 290.653 609.198 293.109 601.172 290.245C601.989 286.237 613.859 284.352 617.46 282.883C625.232 279.61 632.604 278.55 640.866 278.305C645.609 278.141 649.626 276.501 654.288 276.093C658.46 275.685 662.468 276.583 666.648 275.767C671.065 274.869 683.181 272.412 681.874 265.785C681.63 264.561 677.948 260.301 677.049 259.485C675.164 257.771 671.89 256.539 669.277 255.968C664.118 254.825 660.68 255.233 665.677 249.83C668.869 246.313 672.551 240.42 665.187 238.78C659.293 237.474 653.978 240.167 648.573 241.155C645.789 241.645 643.168 240.747 640.303 241.481C637.6 242.134 634.817 244.02 632.114 244.672C628.595 245.57 625.158 244.754 621.64 245.652C617.713 246.55 615.092 247.039 610.839 247.129C596.927 247.537 582.436 256.212 568.442 252.94C562.711 251.634 557.225 250.402 551.502 249.177C543.068 247.374 533.247 250.32 525.066 251.389C514.51 252.777 504.028 253.846 493.39 255.478C487.332 256.457 479.56 259.485 473.502 257.11C475.878 254.654 481.772 254.327 485.046 253.429C493.888 251.136 503.138 249.422 512.053 247.7C521.629 245.815 531.696 244.672 541.354 243.53C547.738 242.714 554.286 243.938 560.507 242.877C577.782 240.012 596.029 236.903 612.561 230.113C628.44 223.568 640.556 209.743 652.753 197.631C658.974 191.331 666.583 185.112 670.183 176.763C671.988 172.43 673.784 166.864 675.017 162.367C676.323 157.862 675.506 152.467 674.037 147.065C711.853 178.24 743.611 216.451 767.263 259.73L767.247 259.714Z" fill="#FF8A10"/>
</g>
<g style="mix-blend-mode:multiply" opacity="0.2">
<path d="M621.468 109.98C621.387 110.143 621.305 110.225 621.224 110.388C617.133 116.607 614.104 122.01 608.863 127.241C603.948 132.154 599.695 135.264 593.555 138.536C586.6 142.135 579.399 145.489 571.618 147.293C564.009 149.015 555.739 150.974 547.877 151.137C541.901 151.3 535.925 150.321 529.949 149.741C522.503 149.007 514.968 148.109 507.604 147.04C501.791 146.224 495.978 145.49 490.173 144.747C484.442 143.931 478.711 142.372 472.898 141.882C468.726 141.474 464.465 141.148 460.293 141.066C457.754 140.985 455.46 140.25 452.929 140.25C451.206 140.168 449.573 140.332 447.851 140.087C446.626 139.842 445.393 139.679 444.087 139.434C445.81 139.271 447.524 139.107 449.247 138.863C453.908 138.21 458.66 138.536 463.33 138.046C467.828 137.638 472.253 137.802 476.752 137.23C484.524 136.333 492.059 135.598 499.913 135.598C507.032 135.598 514.323 136.088 521.442 135.598C523.246 135.517 526.103 134.945 527.173 133.223C528.234 131.338 528.724 129.379 526.846 127.984C524.716 126.433 515.302 123.977 516.698 120.043C517.107 118.9 519.564 118.737 520.789 118.492C525.124 117.839 529.63 117.595 534.047 116.86C536.75 116.37 539.125 115.309 541.819 114.648C544.032 113.995 546.318 113.751 548.53 113.098C551.559 112.282 555.323 111.71 558.433 111.547C565.634 111.139 573.496 114.167 580.534 111.629C584.297 110.241 586.51 108.601 588.804 105.573C589.784 104.349 591.016 103.361 591.996 102.137C593.31 100.334 594.29 98.7014 595.76 97.061C603.369 100.66 610.822 104.504 618.105 108.683C617.207 109.091 616.717 109.825 620.399 109.907C620.725 109.988 621.052 109.988 621.46 109.988L621.468 109.98Z" fill="#FF8A10"/>
</g>
<g style="mix-blend-mode:multiply" opacity="0.2">
<path d="M617.558 130.163C611.835 135.892 606.7 141.034 599.989 145.49C594.291 149.276 587.482 151.684 581.244 154.418C576.362 156.556 571.578 157.878 566.345 158.841C563.781 159.315 561.455 159.91 559.005 160.8C558.034 161.151 556.148 161.387 555.397 162.114C553.788 163.689 554.785 165.289 556.45 165.835C560.859 167.296 565.594 166.145 570.117 165.623C578.983 164.595 588.364 163.779 597.017 161.575C602.7 160.131 608.088 158.156 613.068 155.005C618.954 151.276 626.416 147.163 629.568 140.593C631.625 136.3 632.776 131.901 628.425 128.792C626.335 127.298 624.906 126.303 622.245 126.262C620.938 126.237 615.64 126.417 617.575 130.171L617.558 130.163Z" fill="#FF8A10"/>
</g>
</g>
<g style="mix-blend-mode:soft-light" opacity="0.5">
<path d="M740.158 217.169C731.806 216.19 723.625 213.733 715.927 210.624C713.714 209.644 701.852 202.193 710.44 201.949C710.277 199.982 705.607 195.975 704.383 194.424C702.578 192.131 700.864 189.764 698.815 187.715C696.112 184.932 693.736 184.769 690.463 183.382C686.372 181.578 683.017 178.306 678.837 176.51C669.587 172.503 661.317 167.916 650.924 169.802C643.886 171.107 636.841 177 630.71 180.599C622.521 185.504 612.618 187.715 603.613 190.172C587.489 194.587 570.63 198.521 554.008 201.141C544.186 202.691 534.202 203.107 524.38 204.903C520.29 205.719 516.355 206.788 512.183 206.951C506.452 207.278 500.802 206.462 495.161 207.278C484.115 208.918 473.061 208.502 461.933 208.42C458.823 208.42 445.074 210.55 443.923 205.719C448.585 203.018 455.712 203.099 460.864 202.446C468.971 201.467 476.906 201.059 485.095 200.561C507.44 199.255 529.622 192.049 551.559 187.552C562.033 185.34 572.434 182.476 582.827 179.783C587.824 178.477 592.975 177.571 597.808 175.612C602.968 173.564 607.711 170.781 612.953 168.904C620.815 166.039 626.293 163.42 632.432 158.107C634.237 156.629 636.033 155.732 637.012 153.447C639.878 146.983 630.22 143.465 625.721 141.009C621.713 138.879 617.288 135.851 613.034 134.382C606.16 132.089 599.204 130.293 592.404 127.51C584.133 123.993 575.626 122.597 567.03 120.067C560.564 118.1 554.179 116.06 547.713 114.175C543.133 112.951 538.382 111.718 533.72 110.739C531.752 110.413 528.07 110.576 527.744 108.038C529.222 107.466 530.61 107.956 532.161 107.385C531.426 104.357 513.334 102.97 510.224 103.051C503.595 103.214 497.292 101.411 490.663 101.501C483.707 101.501 477.077 102.888 470.203 103.133C457.353 103.623 444.421 103.051 431.571 103.051C426.493 103.051 421.259 103.378 416.181 103.051C413.316 102.888 411.185 101.656 408.328 101.166C408.654 97.8934 420.688 95.7633 423.635 94.9472C421.668 90.124 404.972 90.6136 400.964 90.6136C393.02 90.6952 385.493 90.9401 377.557 91.8378C370.193 92.6539 362.739 91.8378 355.375 92.3275C349.889 92.6539 343.913 94.8656 338.516 93.47C337.945 93.3068 332.622 92.2459 332.377 92.001C330.246 89.3813 335.651 85.4558 336.883 84.3132C343.758 77.8495 355.057 75.3114 363.237 72.0388C362.176 69.3374 361.523 66.8809 361.188 64.759C382.962 60.9151 405.388 58.9482 428.223 58.9482C488.303 58.9482 545.109 72.6101 595.775 97.0773C603.384 100.676 610.838 104.52 618.121 108.699C618.855 109.107 619.672 109.515 620.415 109.923C620.66 110.086 620.986 110.249 621.231 110.413C639.894 121.21 657.488 133.403 674.028 147.073C698.913 167.606 721.176 191.176 740.166 217.194L740.158 217.169Z" fill="#FFCD4E"/>
</g>
<path opacity="0.5" d="M814.721 445.209C814.721 454.211 814.394 463.213 813.741 472.051C811.528 505.185 805.062 537.104 794.996 567.455V567.537C794.914 567.863 794.751 568.271 794.588 568.598C795.486 564.754 795.649 561.318 795.812 557.303C795.976 554.846 797.037 553.296 797.535 551.084C797.943 548.954 797.453 545.763 797.453 543.641V510.751C797.453 504.288 799.094 498.314 799.005 492.013C799.005 488.659 798.923 485.386 799.005 482.032C799.005 478.433 800.319 475.813 800.646 472.296C801.625 462.723 797.862 453.558 797.453 444.148C797.209 439.733 797.617 435.309 797.453 430.894C797.453 428.601 796.8 427.622 796.229 425.492C795.657 423.035 796.066 420.66 795.984 418.13C795.821 415.429 794.759 413.797 794.261 411.177C793.935 409.128 794.343 406.68 794.343 404.55C794.343 400.298 794.18 396.944 793.118 392.928C792.628 390.88 792.955 388.84 792.465 386.71C792.057 384.988 791.077 383.111 790.498 381.307C789.273 377.3 787.469 373.701 786.244 369.685C783.868 361.916 780.35 354.628 780.431 346.451C780.513 338.183 776.994 330.985 774.618 323.216C772.079 315.03 766.593 309.472 762.176 302.682C759.556 298.757 761.197 295.647 760.127 291.55C759.474 289.257 757.262 286.311 755.302 284.842C752.681 282.793 747.114 281.569 743.921 281.243C739.831 280.835 736.721 283.944 732.459 282.548C733.03 280.174 739.905 277.309 742.444 276.819C745.718 276.166 751.449 276.983 752.265 272.078C752.755 268.642 748.746 266.022 746.697 263.892C745.391 262.505 744.73 261.027 743.587 259.558C742.117 257.673 740.15 257.673 738.427 256.204C736.623 254.653 735.725 253.013 733.847 251.544C732.369 250.32 731.716 248.843 730.41 247.537C727.707 244.836 724.597 241.645 721.486 239.433C714.367 234.52 708.065 232.235 699.631 230.513C696.276 229.86 692.839 229.533 690.055 227.485C687.679 225.763 686.128 223.151 684.65 220.858C682.193 217.014 682.193 216.28 685.466 213.089C688.005 210.55 689.475 207.359 688.495 203.842C687.107 198.276 683.915 189.364 679.245 185.594C673.677 181.097 669.016 179.375 662.223 177.824C659.113 177.09 655.92 177.824 652.81 177.09C650.597 176.6 648.965 175.947 646.671 175.865C641.927 175.702 638.155 174.315 633.412 174.396H617.859C614.259 174.396 608.773 175.294 605.254 174.07C605.907 171.287 612.047 169.736 614.504 168.586C619.084 166.537 624.489 163.673 628.497 160.735C632.179 158.115 634.473 156.156 637.339 152.557C639.143 150.427 641.103 148.305 643.315 146.501C638.4 142.413 634.31 139.467 628.416 136.765C622.439 133.901 615.973 131.689 609.752 129.404C604.266 127.355 598.127 126.621 592.404 125.152C584.795 123.185 579.717 119.504 574.149 113.947C569.405 109.205 565.389 106.014 559.331 103.231C554.334 100.938 549.101 100.611 543.533 99.6318C540.831 99.1421 538.537 98.4893 535.761 98.4076C532.977 98.326 529.867 98.8973 527.164 98.4892C523.482 97.9996 520.535 96.7672 516.69 96.857C513.579 96.9386 510.387 97.2651 507.358 96.5306C504.329 95.7961 501.219 95.7144 498.108 94.9799C489.185 92.8499 484.36 84.0195 478.384 77.8823C474.702 74.2016 471.918 74.3648 467.174 73.3038C461.198 71.9164 454.814 70.5209 448.511 70.5209C441.311 70.6025 434.02 70.5209 426.819 70.5209C422.321 70.5209 419.047 70.8473 414.785 71.7451C411.103 72.4796 407.585 71.5818 403.984 71.9899C397.518 72.7244 391.461 74.9361 384.913 75.1809C381.721 75.2625 380.08 74.0383 377.141 73.5487C375.01 73.2222 371.246 74.6096 369.287 73.7119C365.197 71.9083 374.03 64.6285 364.454 65.7711C353.898 67.0769 343.913 70.2679 333.348 72.4796C322.711 74.6912 311.901 77.719 301.59 81.3181C295.369 83.4482 288.495 86.1495 282.6 89.0876C272.452 94.2454 263.366 97.5997 252.312 101.28C286.037 83.9379 322.621 71.5002 361.172 64.7917C382.945 60.9478 405.372 58.981 428.207 58.981C488.287 58.981 545.093 72.6428 595.759 97.11C603.368 100.709 610.822 104.553 618.104 108.732C618.839 109.14 619.655 109.548 620.398 109.956C620.643 110.119 620.97 110.282 621.215 110.445C639.878 121.243 657.472 133.435 674.012 147.105C698.896 167.639 721.16 191.208 740.15 217.226C750.053 230.725 759.139 244.966 767.246 259.771C777.721 278.672 786.562 298.634 793.682 319.339C794.09 320.563 794.498 321.796 794.988 323.02C795.396 324.244 795.804 325.558 796.212 326.782C803.985 350.923 809.389 376.125 812.337 402.061C813.071 409.096 813.733 416.212 814.059 423.419C814.467 430.617 814.712 437.905 814.712 445.266L814.721 445.209Z" fill="#FF953D"/>
<path opacity="0.5" d="M814.068 423.361C813.741 416.163 813.088 409.047 812.345 402.004C809.398 376.067 803.993 350.866 796.221 326.725C795.813 325.501 795.405 324.187 794.996 322.963C794.506 321.738 794.098 320.506 793.69 319.282C786.571 298.577 777.729 278.615 767.255 259.713C759.148 244.901 750.069 230.668 740.158 217.169C721.168 191.151 698.905 167.582 674.021 147.048C657.488 133.386 639.886 121.194 621.223 110.388C620.978 110.225 620.652 110.062 620.407 109.899C619.672 109.491 618.856 109.082 618.113 108.674C610.83 104.504 603.377 100.652 595.768 97.0529C545.101 72.5857 488.295 58.9238 428.216 58.9238C405.381 58.9238 382.954 60.8907 361.18 64.7346C322.629 71.4431 286.038 83.8807 252.32 101.223C208.283 123.724 169.079 154.573 136.83 191.551C136.83 191.633 136.749 191.633 136.749 191.714C134.234 194.587 131.891 197.582 129.475 200.52C161.225 164.832 199.474 134.962 242.343 113.057C276.069 95.7144 312.653 83.2768 351.204 76.5601C372.977 72.7162 395.404 70.7494 418.239 70.7494C478.319 70.7494 535.125 84.4112 585.791 108.878C593.4 112.478 600.854 116.321 608.136 120.5C608.871 120.908 609.687 121.316 610.43 121.724C610.675 121.887 611.002 122.051 611.247 122.214C629.91 133.011 647.504 145.204 664.044 158.866C688.928 179.399 711.192 202.969 730.181 228.987C740.085 242.485 749.171 256.726 757.278 271.531C767.753 290.432 776.594 310.394 783.713 331.099C784.122 332.323 784.53 333.556 785.02 334.78C785.428 336.004 785.836 337.318 786.244 338.542C794.017 362.683 799.421 387.885 802.368 413.821C803.103 420.856 803.764 427.973 804.091 435.179C804.499 442.377 804.744 449.665 804.744 457.026C804.744 466.028 804.418 475.03 803.765 483.868C801.552 517.003 795.086 548.921 785.02 579.273V579.354C784.938 579.681 784.775 580.089 784.611 580.415C780.031 593.995 774.708 607.257 768.651 620.177C757.107 645.052 742.868 668.532 726.499 690.134C723.781 693.741 720.874 697.177 718.033 700.67C724.426 693.431 730.655 686.037 736.484 678.301C752.853 656.698 767.1 633.218 778.635 608.343C784.693 595.416 790.016 582.162 794.596 568.582C794.76 568.255 794.923 567.847 795.004 567.521V567.439C805.071 537.088 811.537 505.169 813.749 472.035C814.402 463.196 814.729 454.194 814.729 445.193C814.729 437.831 814.484 430.543 814.076 423.345L814.068 423.361Z" fill="#FFCC7A"/>
<path opacity="0.3" d="M216.879 120.394C109.913 189.38 39.0977 309.554 39.0977 446.27C39.0977 660.289 212.658 833.795 426.762 833.795C640.866 833.795 814.427 660.297 814.427 446.27C814.427 446.27 578.1 561.873 325.756 348.776C185.276 230.145 216.887 120.394 216.887 120.394H216.879Z" fill="#DD4359"/>
<g style="mix-blend-mode:multiply" opacity="0.3">
<path d="M48.6827 360.227C42.4045 387.901 39.0898 416.702 39.0898 446.27C39.0898 660.289 212.651 833.796 426.754 833.796C526.422 833.796 617.296 796.197 685.973 734.417C685.973 734.417 494.28 796.825 227.811 645.199C51.2789 544.735 48.6827 360.227 48.6827 360.227Z" fill="#9D0038"/>
</g>
<path d="M427.039 834.432C641.212 834.432 814.834 660.872 814.834 446.776C814.834 232.679 641.212 59.1196 427.039 59.1196C212.866 59.1196 39.2441 232.679 39.2441 446.776C39.2441 660.872 212.866 834.432 427.039 834.432Z" stroke="#2D3047" stroke-width="6"/>
<path d="M128.413 201.704C128.413 201.704 127.197 193.812 125.662 189.715L153.077 160.033C153.077 160.033 161.584 163.175 164.719 162.628L128.413 201.704Z" fill="#2D3047"/>
<path d="M174.842 145.498L176.066 150.664L189.431 140.389L184.671 138.667L174.842 145.498Z" fill="#2D3047"/>
<path d="M94.2956 246.86L70.4482 294.17L62.7168 280.247L78.5062 246.86H94.2956Z" fill="#2D3047"/>
<path d="M243.919 85.921V104.986L282.102 85.921L270.632 78.2903L243.919 85.921Z" fill="#2D3047"/>
<path d="M129.466 695.357L168.964 736.114L156.441 738.995L126.029 708.35L129.466 695.357Z" fill="#2D3047"/>
<path d="M175.087 741.468L190.223 753.767L181.128 757.35L170.327 749.409L175.087 741.468Z" fill="#2D3047"/>
<path d="M73.8525 607.086L109.603 671.437L90.2297 660.24L77.2162 629.701L73.8525 607.086Z" fill="#2D3047"/>
<path d="M220.43 774.888L250.131 791.831L235.281 802.383L216.609 791.896L220.43 774.888Z" fill="#2D3047"/>
<path d="M555.036 812.813L568.842 816.265L608.176 802.383L613.736 786.191L555.036 812.813Z" fill="#2D3047"/>
<path d="M668.272 749.409L689.638 745.475L752.126 673.298V657.016L722.041 699.666L668.272 749.409Z" fill="#2D3047"/>
<path d="M766.936 632.116H783.598L794.996 612.685L785.566 594.771L766.936 632.116Z" fill="#2D3047"/>
<path d="M794.996 571.969L802.581 568.598L805.814 557.629L801.576 547.64L794.996 571.969Z" fill="#2D3047"/>
<path d="M621.811 782.054L627.623 786.191H632.71L629.64 777.377L621.811 782.054Z" fill="#2D3047"/>
<path d="M769.752 265.198L772.487 249.945L747.497 212.003H735.659L769.752 265.198Z" fill="#2D3047"/>
<path d="M719.584 192.294L723.429 173.605L628.546 93.0947L603.539 101.501L654.001 133.452L689.181 161.575L719.584 192.294Z" fill="#2D3047"/>
<path d="M576.476 88.0021L573.7 78.2903L540.374 69.9578L536.022 74.1526L576.476 88.0021Z" fill="#2D3047"/>
<path d="M366.903 63.7553L432.297 58.9239L427.04 49.4487L352.689 54.3862L331.879 70.88L366.903 63.7553Z" fill="#2D3047"/>
<path d="M809.92 508.613L814.835 446.776L823.636 454.047V505.324L809.92 508.613Z" fill="#2D3047"/>
<path d="M771.858 269.221L787.999 267.067L798.718 278.321L782.904 292.481L771.858 269.221Z" fill="#2D3047"/>
<path d="M39.0976 454.047L43.645 505.324L34.7135 501.464L30.5498 460.242L39.0976 454.047Z" fill="#2D3047"/>
<path d="M230.031 100.497V112.796L243.918 104.985L235.215 100.774L230.031 100.497Z" fill="#2D3047"/>
<path d="M485.993 831.568L399.266 833.453L412.14 844.642H479.094L485.993 831.568Z" fill="#2D3047"/>
</g>
<defs>
<clipPath id="clip0_314_39">
<rect width="872" height="896" fill="white"/>
</clipPath>
</defs>
</svg>
