<svg width="415" height="424" viewBox="0 0 415 424" fill="none" xmlns="http://www.w3.org/2000/svg">
<path d="M396.931 216.271C396.931 287.281 358.134 349.194 300.545 381.955C272.803 397.944 240.605 406.959 206.283 406.959C100.966 406.959 15.6348 321.61 15.6348 216.271C15.6348 211.732 15.7998 207.255 16.1917 202.861C22.9983 103.875 105.503 25.582 206.283 25.582C307.063 25.582 396.931 111.013 396.931 216.271V216.271Z" fill="#F1B1D8"/>
<path d="M387.588 220.397C387.588 289.86 349.759 350.452 293.573 382.491C266.512 398.129 235.098 406.959 201.622 406.959C98.8823 406.959 15.6348 323.447 15.6348 220.397C15.6348 215.94 15.7791 211.587 16.171 207.276C22.8127 110.436 103.317 33.8342 201.601 33.8342C299.885 33.8342 387.588 117.409 387.588 220.397V220.397Z" fill="#DE93D6"/>
<path d="M16.1504 213.114C15.7791 217.281 15.6348 221.531 15.6348 225.843C15.6348 325.901 95.6646 406.959 194.444 406.959C226.641 406.959 256.838 398.397 282.848 383.213C336.868 352.102 373.232 293.285 373.232 225.843C373.232 222.295 370.839 216.91 370.716 212.908C370.654 210.824 370.839 208.72 370.798 206.636C370.674 202.097 369.767 197.806 369.767 193.226C369.767 190.936 369.952 188.584 369.808 186.294C369.684 184.252 368.839 182.395 368.735 180.353C368.529 176 367.106 171.791 367.993 167.376C368.591 164.467 369.87 161.744 366.858 159.805C364.858 158.505 364.239 159.062 362.795 156.648C361.681 154.771 360.588 153.471 359.103 151.903C356.978 149.634 354.173 147.323 352.647 144.703C352.358 144.187 351.017 142.681 350.976 142.165C350.852 140.969 352.234 140.02 351.636 138.926C349.161 138.328 346.542 139.277 344.066 138.741C341.096 138.101 340.56 135.172 340.147 132.386C339.879 130.55 340.395 129.581 340.849 127.889C341.241 126.362 341.055 124.815 341.076 123.227V125.62C341.076 122.876 341.818 118.832 340.931 116.253C340.271 114.335 337.652 111.426 336.187 110.044C333.609 107.609 331.505 107.692 328.39 106.866C324.368 105.794 325.049 101.337 323.296 98.181C322.471 96.6956 321.522 95.9322 320.346 94.7769C317.562 92.0537 315.313 88.4846 312.983 85.3694C308.651 79.5722 305.31 79.7372 298.586 79.3865C292.583 79.077 285.034 76.6839 279.713 74.1669C271.73 70.4122 263.892 65.4815 254.796 67.0907C249.454 68.0397 244.524 71.1961 239.12 71.5056C234.19 71.7738 230.498 69.5457 226.291 67.2557C217.504 62.49 209.666 56.4865 199.538 54.8154C191.123 53.4332 181.573 52.5255 173.054 53.8045C163.587 55.2074 154.986 58.7559 146.075 61.9949C135.886 65.6878 128.172 73.3417 119.405 79.3865C112.001 84.4822 102.657 85.5757 95.5615 90.9396C92.9007 92.9614 89.3323 96.0973 87.641 99.0681C86.8366 100.471 86.5065 102.183 85.7846 103.607C84.5677 106.021 82.5875 108.001 80.8137 109.982C65.509 127.002 39.4787 133.047 28.2374 152.976C26.3604 156.318 21.7401 174.122 20.6469 177.671C18.5224 184.603 34.054 189.595 32.177 196.589C31.6201 198.693 30.0938 200.447 29.0831 202.324C28.0724 204.16 27.2267 206.677 25.6179 208.121C23.4934 210.019 18.1718 210.576 16.2123 213.073L16.1504 213.114Z" fill="#A744A7"/>
<g style="mix-blend-mode:multiply" opacity="0.2">
<path d="M355.803 276.698C354.318 268.631 349.306 262.05 344.83 255.386C341.468 250.373 337.61 245.669 334.166 240.738C331.588 237.046 329.071 232.899 325.936 229.619C322.491 225.926 317.149 220.686 319.831 215.033C321.233 211.979 324.843 210.329 327.277 208.142C329.855 205.708 331.98 202.819 334.166 199.993C336.682 196.775 336.827 193.886 338.085 190.111C339.426 185.964 340.271 183.138 339.343 178.826C338.477 175.298 339.57 172.389 337.219 169.274C335.486 166.84 332.743 164.88 330.164 163.559C324.987 160.733 320.924 158.299 317.314 153.615C315.355 151.099 314.489 148.128 311.436 146.642C308.466 145.239 305.165 145.941 301.948 145.549C297.719 145.074 289.881 144.29 286.829 140.845C281.425 134.821 286.746 124.691 279.156 120.38C274.37 117.718 269.049 115.057 263.397 114.974C254.776 114.809 245.617 117.636 237.388 119.761C229.632 121.803 222.104 126.589 220.453 134.965C219.897 137.482 220.763 139.896 221.237 142.413C221.939 145.549 222.33 148.21 223.754 151.119C229.859 163.497 244.607 168.449 256.034 174.473C265.274 179.342 267.791 189.286 264.264 198.776C262.139 204.49 256.034 208.72 251.97 213.032C249.227 216.002 246.174 218.746 243.514 221.738C241.08 224.482 239.368 227.927 237.326 230.98C232.85 237.809 230.437 245.566 225.342 252.065C220.474 258.171 215.792 264.134 208.408 267.104C201.745 269.848 194.609 268.755 187.637 269.766C181.449 270.632 174.952 270.859 168.599 270.55C165.155 270.385 161.937 269.456 158.41 269.539C154.656 269.539 151.356 269.312 147.684 268.59C140.238 266.939 132.318 264.113 125.82 260.193C121.509 257.614 117.9 253.694 116.58 248.743C115.322 244.039 115.961 236.117 118.23 231.888C122.706 223.574 134.133 219.654 143.064 221.469C151.686 223.202 159.668 229.536 167.444 233.373C175.282 237.293 182.481 238.552 189.7 233.146C192.608 230.96 193.619 229 195.578 226.091C196.836 224.296 198.796 223.264 200.508 222.006C206.551 217.467 212.347 212.908 217.442 207.193C222.227 201.788 226.621 196.857 226.291 189.162C226.064 182.808 223.382 178.269 219.546 173.4C216.019 168.923 213.111 164.55 210.615 159.289C208.428 154.503 204.117 151.759 198.94 150.583C194.32 149.572 188.524 149.097 184.213 151.594C182.811 152.378 181.862 153.554 180.913 154.895C180.212 155.988 179.902 156.627 178.788 157.721C176.664 159.908 174.787 162.899 172.827 165.251C170.167 168.552 167.031 171.131 163.731 173.792C158.802 177.877 152.284 179.754 145.951 177.403C141.249 175.67 135.927 174.102 132.318 170.429C126.913 165.024 128.316 154.998 127.532 148.086C126.522 139.628 126.047 130.695 122.829 122.608C121.654 119.472 119.302 114.995 116.394 113.118C114.043 111.632 111.073 111.715 108.329 112.169C103.544 112.953 99.3981 116.171 95.5616 118.832C90.24 122.443 88.4249 127.229 85.6816 132.779C79.9681 144.373 75.8016 156.442 70.5626 168.284C67.5924 174.947 65.7773 181.921 67.118 189.286C68.6031 197.435 67.5924 212.557 56.0004 212.887C43.1503 213.197 41.3558 198.157 37.1893 189.224C36.5705 187.883 33.8272 180.683 31.3108 183.819C30.8364 184.376 31.0839 187.965 30.7539 188.914C30.197 190.957 29.5782 192.669 29.1863 194.712C28.1756 199.58 23.4729 203.335 18.2957 203.253C17.5119 203.253 16.8106 203.088 16.1712 202.861C15.7793 207.255 15.6143 211.711 15.6143 216.271C15.6143 321.61 100.945 406.959 206.263 406.959C240.585 406.959 272.782 397.944 300.525 381.955C297.554 378.902 294.027 376.385 290.645 374.59C284.993 371.619 278.351 370.752 272.473 368.483C267.543 366.523 261.974 365.822 256.879 364.171C252.651 362.768 247.866 361.2 244.256 358.684C242.214 357.281 241.513 354.537 240.028 352.577C238.935 351.174 238.295 349.441 237.202 347.956C233.984 343.644 229.055 338.631 229.055 332.833C229.055 327.036 234.067 323.116 239.326 322.889C245.597 322.58 252.177 324.684 258.138 326.19C262.758 327.284 267.316 329.326 271.772 330.894C275.134 332.07 278.661 333.163 281.652 335.041C286.272 337.95 291.14 340.611 296.688 340.756C302.567 340.982 306.259 339.415 311.271 336.836C318.16 333.308 321.605 325.778 326.245 319.754C328.37 317.01 329.938 313.709 332.351 311.213C333.836 309.727 335.651 308.551 337.136 307.128C339.962 304.466 342.54 302.114 345.84 300.072C347.408 299.123 349.759 298.504 351.018 297.246C352.193 296.152 353.06 293.883 353.678 292.459C355.947 287.756 356.649 281.876 355.803 276.698V276.698ZM186.936 180.518C189.205 180.91 192.031 182.313 193.598 183.963C195.475 185.923 197.6 190.936 197.208 193.598C196.898 195.784 196.197 199.395 194.238 200.818C191.659 202.696 187.348 203.005 184.296 203.562C182.419 203.954 180.686 204.346 178.727 203.954C177.633 203.727 175.426 203.645 174.416 203.253C168.847 201.066 170.105 192.752 169.878 188.522L168.393 187.821C173.488 183.035 179.758 179.197 186.956 180.538L186.936 180.518ZM89.7656 231.063C86.9398 230.753 84.8359 230.279 83.3302 227.762C81.4532 224.791 81.3707 221.49 81.4532 218.127C81.5357 211.464 83.4952 204.656 85.9291 198.446C88.6724 191.473 92.117 185.902 96.3454 179.548C91.952 182.209 96.8198 176.969 101.523 175.071C104.658 173.813 107.793 172.554 111.238 173.029C118.457 173.978 126.212 181.652 129.1 188.069C131.616 193.474 130.585 199.353 129.801 205.006C129.801 205.171 129.801 205.233 129.719 205.398C131.905 203.129 134.731 200.468 137.948 200.612C142.032 200.839 145.168 205.151 145.395 209.009C145.56 213.32 142.259 216.064 138.175 216.229C135.35 216.312 131.678 215.672 130.255 213.011C128.997 210.742 129.389 207.833 129.698 205.398C129.471 205.625 129.224 205.873 128.997 206.1C122.252 212.763 114.806 218.478 108.082 225.059C103.379 229.598 96.1804 231.723 89.745 231.021L89.7656 231.063ZM192.505 343.995C190.937 348.781 187.967 353.629 183.491 356.228C177.53 359.591 168.764 359.921 162.246 359.137C154.573 358.188 147.127 356.559 139.599 354.661C130.832 352.536 123.304 348.616 117.425 341.725C108.659 331.389 104.493 315.009 105.194 301.599C105.421 297.844 106.452 293.759 109.031 290.788C110.433 289.303 112.001 287.879 113.506 286.476C114.29 285.692 115.301 283.898 111.939 285.775C113.589 282.557 115.301 279.421 117.199 276.367C118.374 275.749 119.55 275.192 120.808 274.8C124.418 273.706 128.254 273.005 131.926 272.365C135.762 271.664 139.516 271.664 143.373 271.664C147.684 271.664 152.16 271.272 156.388 272.365C160.142 273.314 163.525 275.192 166.887 276.842C170.187 278.575 173.694 279.421 176.911 281.319C178.479 282.268 179.655 283.753 180.995 285.074C182.79 286.868 184.44 288.374 185.781 290.561C188.359 295.183 189.927 299.804 191.35 304.9C195.042 317.525 196.671 331.307 192.526 344.015L192.505 343.995ZM305.186 269.683C302.917 273.438 298.751 276.182 294.522 277.213C290.995 278.08 286.767 276.986 283.322 276.037C280.806 275.336 278.619 273.912 276.186 273.128C273.525 272.262 271.483 271.726 269.131 270.385C264.655 267.868 259.808 266.238 256.673 261.988C253.62 257.759 252.754 251.487 251.496 246.556C250.32 241.935 249.31 237.768 250.712 233.084C252.115 228.298 254.941 224.378 257.601 220.232C259.004 217.962 261.046 216.085 262.531 213.795C265.047 210.35 267.069 206.182 269.276 202.592C273.277 200.076 277.506 197.27 284.312 197.414C287.757 197.414 290.748 198.198 293.47 200.385C297.864 203.913 301.783 207.214 303.495 212.763C304.279 215.342 304.98 218.024 305.681 220.603C306.465 223.264 306.3 225.864 306.547 228.608C306.774 231.125 307.414 233.538 307.723 236.055C308.115 238.799 307.414 241.316 307.166 244.122C307.001 246.474 306.939 249.053 307.084 251.404C307.166 253.447 307.95 255.407 307.95 257.511C307.95 261.121 307.084 266.527 305.124 269.663L305.186 269.683Z" fill="#190078"/>
</g>
<g style="mix-blend-mode:multiply" opacity="0.2">
<path d="M177.984 123.185C174.168 114.933 169.197 107.032 169.754 97.5622C170.063 92.1363 172.085 85.9265 177.943 84.668C182.645 83.6571 188.049 86.3391 192.133 88.4434C194.237 89.5369 196.486 90.9397 198.136 92.6933C200.033 94.6945 200.611 97.294 201.374 99.8728C203.333 106.33 207.108 118.915 199.208 123.082C191.432 127.188 183.223 125.475 177.984 123.206V123.185Z" fill="#190078"/>
</g>
<g style="mix-blend-mode:multiply" opacity="0.2">
<path d="M155.728 86.8135C158.575 88.1751 161.565 89.0829 164.659 89.4748C164.35 88.1545 165.588 87.8657 166 86.7929C166.248 86.1327 166.371 84.4822 166.165 83.7808C165.753 82.4192 164.432 81.7177 163.174 81.5733C162.205 81.4495 161.091 81.8209 160.142 81.6352C159.462 81.4908 159.503 80.8719 158.74 80.9338C156.615 81.1195 155.501 84.3585 155.728 86.0502V86.7929V86.8135Z" fill="#190078"/>
</g>
<g style="mix-blend-mode:multiply" opacity="0.2">
<path d="M269.297 92.7552C273.484 90.6921 282.539 84.8124 288.046 87.6182C292.295 89.7844 295.781 93.828 298.875 97.3764C301.205 100.038 303.639 105.175 302.278 108.703C300.875 112.354 296.255 115.098 292.377 115.139C289.861 115.16 287.345 114.19 284.952 113.551C282.023 112.787 278.888 112.354 276.062 111.178C273.484 110.106 271.813 108.434 269.792 106.598C268.719 105.629 267.234 104.948 266.45 103.731C265.089 101.626 265.687 99.1919 266.491 97.0463C267.296 94.942 269.441 90.4652 269.317 92.7345L269.297 92.7552Z" fill="#190078"/>
</g>
<g style="mix-blend-mode:multiply" opacity="0.2">
<path d="M191.35 279.111C192.876 285.899 193.144 299.37 203.251 299.247C208.449 299.185 210.553 296.008 209.769 291.201C208.923 286.022 206.613 280.328 201.188 278.492C200.157 278.142 197.661 277.378 196.547 277.543C194.712 277.812 192.979 280.432 191.35 281.319V279.091V279.111Z" fill="#190078"/>
</g>
<g style="mix-blend-mode:multiply" opacity="0.2">
<path d="M396.932 216.27C396.932 287.281 358.134 349.193 300.545 381.955C272.803 397.943 240.605 406.959 206.283 406.959C100.966 406.959 15.6348 321.61 15.6348 216.27C15.6348 211.732 15.7998 207.255 16.1917 202.861C17.8418 178.908 23.9265 156.174 33.6208 135.46C33.6208 135.46 100.842 195.495 219.34 220.376C337.837 245.256 396.952 216.25 396.952 216.25L396.932 216.27Z" fill="#190078"/>
</g>
<g style="mix-blend-mode:multiply" opacity="0.2">
<path d="M16.1712 202.861C15.7793 207.255 15.6143 211.711 15.6143 216.27C15.6143 321.61 100.945 406.959 206.263 406.959C240.585 406.959 272.782 397.944 300.525 381.955C317.582 372.258 332.97 360.004 346.212 345.727C346.212 345.727 231.777 351.669 132.771 299.267C33.7654 246.866 16.1712 202.861 16.1712 202.861Z" fill="#190078"/>
</g>
<path d="M396.931 216.271C396.931 287.281 358.134 349.194 300.545 381.955C272.803 397.944 240.605 406.959 206.283 406.959C100.966 406.959 15.6348 321.61 15.6348 216.271C15.6348 211.732 15.7998 207.255 16.1917 202.861C22.9983 103.875 105.503 25.582 206.283 25.582C307.063 25.582 396.931 111.013 396.931 216.271V216.271Z" stroke="#2D3047" stroke-width="2" stroke-miterlimit="10"/>
<path d="M179.284 405.061L170.023 413.808L53.3813 362.046L37.9941 305.993L60.0436 338.631L85.8264 364.976L113.424 382.862L141.373 395.633L179.284 405.061Z" fill="#2D3047"/>
<path d="M44.9037 320.826L29.9909 315.566L13.0361 242.471L16.522 234.859L22.3798 262.339L40.634 315.566L44.9037 320.826Z" fill="#2D3047"/>
<path d="M113.424 49.7197L150.633 33.8342L190.112 26.2628L225.177 25.5819L206.283 17.5979L96.9433 46.4601L90.8379 64.5531L113.424 49.7197Z" fill="#2D3047"/>
<path d="M316.717 60.8191L335.095 64.5532L400.583 150.934L392.003 172.988L381.483 141.196L358.65 101.647L335.879 75.3018L316.717 60.8191Z" fill="#2D3047"/>
<path d="M318.47 370.381L340.354 351.793L365.724 320.826L382.803 288.395L390.249 266.527L396.932 291.304L328.473 373.744L318.47 370.381Z" fill="#2D3047"/>
<path d="M76.1323 76.9728L60.5388 93.4154L57.1768 84.4411L68.8718 64.5532L76.1323 76.9728Z" fill="#2D3047"/>
<path d="M394.354 184.891L396.932 204.119L403.903 197.455V182.519L394.354 184.891Z" fill="#2D3047"/>
<path d="M225.177 406.052L244.854 403.06V413.809L232.582 416.449L225.177 406.052Z" fill="#2D3047"/>
</svg>
